Newsreader-Light.ufo
<glyph name="period" format="2">
  <advance width="399.8933333333333"/>
  <unicode hex="002E"/>
  <outline>
    <contour>
      <point x="199.94666666666666" y="174.49333333333334" type="curve" smooth="yes"/>
      <point x="145.61333333333334" y="174.49333333333334"/>
      <point x="105.26666666666667" y="132.14666666666665"/>
      <point x="105.26666666666667" y="79.93333333333334" type="curve" smooth="yes"/>
      <point x="105.26666666666667" y="27.72"/>
      <point x="145.61333333333334" y="-14.626666666666667"/>
      <point x="199.94666666666666" y="-14.626666666666667" type="curve" smooth="yes"/>
      <point x="254.28" y="-14.626666666666667"/>
      <point x="294.62666666666667" y="27.72"/>
      <point x="294.62666666666667" y="79.93333333333334" type="curve" smooth="yes"/>
      <point x="294.62666666666667" y="132.14666666666665"/>
      <point x="254.28" y="174.49333333333334"/>
    </contour>
  </outline>
</glyph>
<glyph name="C" format="2">
  <advance width="1351.5466666666666"/>
  <unicode hex="0043"/>
  <anchor x="764.2" y="1340.0" name="UCtop"/>
  <anchor x="769.2666666666667" y="0.0" name="bottom"/>
  <anchor x="1246.1333333333332" y="0.0" name="right"/>
  <outline>
    <contour>
      <point x="832.2" y="38.04" type="curve" smooth="yes"/>
      <point x="488.05333333333334" y="38.04"/>
      <point x="212.98666666666668" y="276.3325"/>
      <point x="212.98666666666668" y="705.5733333333334" type="curve" smooth="yes"/>
      <point x="212.98666666666668" y="1084.311774891775"/>
      <point x="435.06666666666666" y="1296.8266666666666"/>
      <point x="794.1466666666666" y="1296.8266666666666" type="curve" smooth="yes"/>
      <point x="916.2" y="1296.8266666666666"/>
      <point x="1014.7466666666667" y="1268.8"/>
      <point x="1150.56" y="1192.5066666666667" type="curve"/>
      <point x="1082.36" y="1260.08" type="line"/>
      <point x="1229.9466666666667" y="945.4133333333333" type="line"/>
      <point x="1262.7866666666666" y="951.9066666666666" type="line"/>
      <point x="1195.3866666666668" y="1390.48" type="line"/>
      <point x="1183.6533333333334" y="1390.48" type="line"/>
      <point x="1100.64" y="1311.24" type="line"/>
      <point x="1156.52" y="1307.4533333333334" type="line"/>
      <point x="1036.88" y="1343.8533333333332"/>
      <point x="946.7066666666667" y="1360.0"/>
      <point x="846.16" y="1360.0" type="curve" smooth="yes"/>
      <point x="382.49333333333334" y="1360.0"/>
      <point x="97.76" y="1088.034052478134"/>
      <point x="97.76" y="665.52" type="curve" smooth="yes"/>
      <point x="97.76" y="229.4806812652068"/>
      <point x="408.6533333333333" y="-20.0"/>
      <point x="831.0933333333334" y="-20.0" type="curve" smooth="yes"/>
      <point x="980.92" y="-20.0"/>
      <point x="1132.1466666666668" y="10.866666666666667"/>
      <point x="1226.7866666666666" y="54.24" type="curve"/>
      <point x="1266.68" y="335.2" type="line"/>
      <point x="1230.6" y="335.2" type="line"/>
      <point x="1099.7466666666667" y="56.17333333333333" type="line"/>
      <point x="1157.0266666666666" y="111.34666666666666" type="line"/>
      <point x="1060.28" y="62.18666666666667"/>
      <point x="944.72" y="38.04"/>
    </contour>
  </outline>
</glyph>
<glyph name="D" format="2">
  <advance width="1446.12"/>
  <unicode hex="0044"/>
  <anchor x="762.9066666666666" y="1340.0" name="UCtop"/>
  <anchor x="763.6533333333333" y="0.0" name="bottom"/>
  <outline>
    <contour>
      <point x="1230.3866666666668" y="686.7466666666667" type="curve" smooth="yes"/>
      <point x="1230.3866666666668" y="244.81333333333333"/>
      <point x="962.6" y="63.92"/>
      <point x="547.5066666666667" y="63.92" type="curve" smooth="yes"/>
      <point x="267.28" y="63.92" type="line"/>
      <point x="278.56" y="0.0" type="line"/>
      <point x="577.1333333333333" y="0.0" type="line" smooth="yes"/>
      <point x="1015.4933333333333" y="0.0"/>
      <point x="1346.7333333333333" y="242.45333333333332"/>
      <point x="1346.7333333333333" y="696.2133333333334" type="curve" smooth="yes"/>
      <point x="1346.7333333333333" y="1115.8266666666666"/>
      <point x="1083.4666666666667" y="1340.0"/>
      <point x="571.3733333333333" y="1340.0" type="curve" smooth="yes"/>
      <point x="278.56" y="1340.0" type="line"/>
      <point x="267.28" y="1276.08" type="line"/>
      <point x="520.4933333333333" y="1276.08" type="line" smooth="yes"/>
      <point x="966.6" y="1276.08"/>
      <point x="1230.3866666666668" y="1081.04"/>
    </contour>
    <contour>
      <point x="76.22666666666666" y="0.0" type="line"/>
      <point x="350.36" y="0.0" type="line"/>
      <point x="350.36" y="1340.0" type="line"/>
      <point x="76.22666666666666" y="1340.0" type="line"/>
      <point x="76.22666666666666" y="1311.6533333333334" type="line"/>
      <point x="243.0" y="1273.44" type="line"/>
      <point x="243.0" y="66.56" type="line"/>
      <point x="76.22666666666666" y="28.346666666666664" type="line"/>
    </contour>
  </outline>
</glyph>
<glyph name="J" format="2">
  <advance width="718.6666666666666"/>
  <unicode hex="004A"/>
  <anchor x="443.72" y="1340.0" name="UCtop"/>
  <anchor x="328.81333333333333" y="0.0" name="bottom"/>
  <outline>
    <contour>
      <point x="498.52" y="405.56" type="curve" smooth="yes"/>
      <point x="497.4" y="1273.44" type="line"/>
      <point x="663.8" y="1311.6533333333334" type="line"/>
      <point x="663.8" y="1340.0" type="line"/>
      <point x="223.26666666666665" y="1340.0" type="line"/>
      <point x="223.26666666666665" y="1311.6533333333334" type="line"/>
      <point x="390.03999999999996" y="1273.44" type="line"/>
      <point x="390.03999999999996" y="321.81333333333333" type="line" smooth="yes"/>
      <point x="390.03999999999996" y="133.07999999999998"/>
      <point x="318.4266666666667" y="61.08"/>
      <point x="229.69333333333333" y="61.08" type="curve" smooth="yes"/>
      <point x="160.24" y="61.08"/>
      <point x="107.65333333333334" y="120.49333333333334"/>
      <point x="79.08" y="120.49333333333334" type="curve" smooth="yes"/>
      <point x="39.88" y="120.49333333333334"/>
      <point x="18.893333333333334" y="93.14666666666666"/>
      <point x="18.893333333333334" y="59.17333333333333" type="curve" smooth="yes"/>
      <point x="18.893333333333334" y="12.6"/>
      <point x="61.2" y="-16.866666666666667"/>
      <point x="124.98666666666666" y="-16.866666666666667" type="curve" smooth="yes"/>
      <point x="333.76" y="-16.866666666666667"/>
      <point x="498.52" y="129.58666666666667"/>
    </contour>
  </outline>
</glyph>
<glyph name="K" format="2">
  <advance width="1356.0933333333332"/>
  <unicode hex="004B"/>
  <anchor x="691.9066666666666" y="0.0" name="bottom"/>
  <anchor x="664.96" y="1340.0" name="UCtop"/>
  <outline>
    <contour>
      <point x="1210.8266666666666" y="68.05333333333333" type="line"/>
      <point x="542.7333333333333" y="743.8533333333334" type="line"/>
      <point x="528.5333333333333" y="691.7466666666667" type="line"/>
      <point x="1099.6933333333334" y="1273.44" type="line"/>
      <point x="1264.6" y="1311.6533333333334" type="line"/>
      <point x="1264.6" y="1340.0" type="line"/>
      <point x="848.7733333333333" y="1340.0" type="line"/>
      <point x="848.7733333333333" y="1311.6533333333334" type="line"/>
      <point x="1014.8" y="1275.3066666666666" type="line"/>
      <point x="490.84" y="728.6" type="line"/>
      <point x="315.6666666666667" y="728.6" type="line"/>
      <point x="315.6666666666667" y="665.8" type="line"/>
      <point x="482.3466666666667" y="665.8" type="line"/>
      <point x="1068.0133333333333" y="66.93333333333334" type="line"/>
      <point x="903.48" y="28.346666666666664" type="line"/>
      <point x="903.48" y="0.0" type="line"/>
      <point x="1367.96" y="0.0" type="line"/>
      <point x="1367.96" y="28.346666666666664" type="line"/>
    </contour>
    <contour>
      <point x="350.36" y="1273.44" type="line"/>
      <point x="517.1333333333333" y="1311.6533333333334" type="line"/>
      <point x="517.1333333333333" y="1340.0" type="line"/>
      <point x="76.22666666666666" y="1340.0" type="line"/>
      <point x="76.22666666666666" y="1311.6533333333334" type="line"/>
      <point x="243.0" y="1273.44" type="line"/>
      <point x="243.0" y="66.56" type="line"/>
      <point x="76.22666666666666" y="28.346666666666664" type="line"/>
      <point x="76.22666666666666" y="0.0" type="line"/>
      <point x="517.1333333333333" y="0.0" type="line"/>
      <point x="517.1333333333333" y="28.346666666666664" type="line"/>
      <point x="350.36" y="66.56" type="line"/>
    </contour>
  </outline>
</glyph>
<glyph name="Q" format="2">
  <advance width="1498.0533333333333"/>
  <unicode hex="0051"/>
  <anchor x="759.04" y="1340.0" name="UCtop"/>
  <anchor x="748.4666666666667" y="-383.81333333333333" name="bottom"/>
  <outline>
    <contour>
      <point x="957.5066666666667" y="-272.81333333333333" type="line" smooth="yes"/>
      <point x="1102.4133333333334" y="-365.6"/>
      <point x="1161.4533333333334" y="-393.0"/>
      <point x="1276.7866666666666" y="-393.0" type="curve" smooth="yes"/>
      <point x="1351.3066666666666" y="-393.0"/>
      <point x="1426.52" y="-378.7733333333333"/>
      <point x="1488.6266666666668" y="-361.28" type="curve"/>
      <point x="1488.6266666666668" y="-335.4266666666667" type="line"/>
      <point x="1320.56" y="-350.81333333333333"/>
      <point x="1250.8" y="-323.56"/>
      <point x="1075.9466666666667" y="-225.84" type="curve" smooth="yes"/>
      <point x="610.6133333333333" y="32.986666666666665" type="line"/>
      <point x="655.4533333333334" y="-0.6266666666666667" type="line"/>
      <point x="1106.1466666666668" y="-70.32"/>
      <point x="1400.2933333333333" y="256.6"/>
      <point x="1400.2933333333333" y="671.3733333333333" type="curve" smooth="yes"/>
      <point x="1400.2933333333333" y="1071.6133333333332"/>
      <point x="1120.2933333333333" y="1360.0"/>
      <point x="741.5733333333334" y="1360.0" type="curve" smooth="yes"/>
      <point x="368.61333333333334" y="1360.0"/>
      <point x="97.76" y="1070.4933333333333"/>
      <point x="97.76" y="668.6266666666667" type="curve" smooth="yes"/>
      <point x="97.76" y="400.55816017316016"/>
      <point x="214.54359857809808" y="195.24306106110367"/>
      <point x="430.7733333333333" y="57.12" type="curve" smooth="yes"/>
    </contour>
    <contour>
      <point x="757.2133333333334" y="41.29333333333334" type="curve" smooth="yes"/>
      <point x="441.02666666666664" y="41.29333333333334"/>
      <point x="214.10666666666665" y="283.4533333333333"/>
      <point x="214.10666666666665" y="688.0933333333334" type="curve" smooth="yes"/>
      <point x="214.10666666666665" y="1049.2533333333333"/>
      <point x="410.1333333333333" y="1298.7066666666667"/>
      <point x="740.84" y="1298.7066666666667" type="curve" smooth="yes"/>
      <point x="1057.0266666666666" y="1298.7066666666667"/>
      <point x="1283.9466666666667" y="1056.5466666666666"/>
      <point x="1283.9466666666667" y="651.9066666666666" type="curve" smooth="yes"/>
      <point x="1283.9466666666667" y="290.74666666666667"/>
      <point x="1087.92" y="41.29333333333334"/>
    </contour>
  </outline>
</glyph>
<glyph name="W" format="2">
  <advance width="1850.32"/>
  <unicode hex="0057"/>
  <anchor x="937.68" y="1340.0" name="UCtop"/>
  <anchor x="937.68" y="0.0" name="bottom"/>
  <outline>
    <contour>
      <point x="958.2133333333334" y="1213.96" type="line"/>
      <point x="921.16" y="1201.2666666666667" type="line"/>
      <point x="1339.7733333333333" y="-20.0" type="line"/>
      <point x="1371.1066666666666" y="-20.0" type="line"/>
      <point x="1692.0266666666666" y="1273.44" type="line"/>
      <point x="1854.5733333333333" y="1311.6533333333334" type="line"/>
      <point x="1854.5733333333333" y="1340.0" type="line"/>
      <point x="1455.48" y="1340.0" type="line"/>
      <point x="1455.48" y="1311.6533333333334" type="line"/>
      <point x="1627.1066666666666" y="1273.44" type="line"/>
      <point x="1344.64" y="102.25333333333333" type="line"/>
      <point x="1398.9466666666667" y="122.33333333333333" type="line"/>
      <point x="977.2" y="1360.0" type="line"/>
      <point x="945.12" y="1360.0" type="line"/>
      <point x="499.2" y="131.0" type="line"/>
      <point x="538.8266666666667" y="137.26666666666665" type="line"/>
      <point x="270.15999999999997" y="1273.44" type="line"/>
      <point x="442.5333333333333" y="1311.6533333333334" type="line"/>
      <point x="442.5333333333333" y="1340.0" type="line"/>
      <point x="-1.7333333333333325" y="1340.0" type="line"/>
      <point x="-1.7333333333333325" y="1311.6533333333334" type="line"/>
      <point x="161.30666666666667" y="1272.6933333333334" type="line"/>
      <point x="473.04" y="-20.0" type="line"/>
      <point x="503.74666666666667" y="-20.0" type="line"/>
    </contour>
  </outline>
</glyph>
<glyph name="Y" format="2">
  <advance width="1324.4933333333333"/>
  <unicode hex="0059"/>
  <anchor x="683.6266666666667" y="1340.0" name="UCtop"/>
  <anchor x="682.3733333333333" y="0.0" name="bottom"/>
  <outline>
    <contour>
      <point x="158.30666666666667" y="1272.6933333333334" type="line"/>
      <point x="629.8133333333334" y="582.2533333333333" type="line"/>
      <point x="629.8133333333334" y="66.56" type="line"/>
      <point x="463.04" y="28.346666666666664" type="line"/>
      <point x="463.04" y="0.0" type="line"/>
      <point x="903.9466666666667" y="0.0" type="line"/>
      <point x="903.9466666666667" y="28.346666666666664" type="line"/>
      <point x="737.1733333333333" y="66.56" type="line"/>
      <point x="737.1733333333333" y="586.12" type="line"/>
      <point x="1143.32" y="1273.44" type="line"/>
      <point x="1308.8533333333332" y="1311.6533333333334" type="line"/>
      <point x="1308.8533333333332" y="1340.0" type="line"/>
      <point x="903.4133333333333" y="1340.0" type="line"/>
      <point x="903.4133333333333" y="1311.6533333333334" type="line"/>
      <point x="1072.0533333333333" y="1273.44" type="line"/>
      <point x="692.84" y="611.5866666666667" type="line"/>
      <point x="736.4133333333333" y="611.4666666666667" type="line"/>
      <point x="290.88" y="1273.44" type="line"/>
      <point x="460.64" y="1311.6533333333334" type="line"/>
      <point x="460.64" y="1340.0" type="line"/>
      <point x="-4.7333333333333325" y="1340.0" type="line"/>
      <point x="-4.7333333333333325" y="1311.6533333333334" type="line"/>
    </contour>
  </outline>
</glyph>
<glyph name="bracketleft" format="2">
  <advance width="558.1733333333333"/>
  <unicode hex="005B"/>
  <outline>
    <contour>
      <point x="190.13333333333333" y="-256.12" type="line"/>
      <point x="526.04" y="-256.12" type="line"/>
      <point x="526.04" y="-204.92000000000002" type="line"/>
      <point x="284.52" y="-204.92000000000002" type="line"/>
      <point x="284.52" y="1347.8" type="line"/>
      <point x="526.04" y="1347.8" type="line"/>
      <point x="526.04" y="1399.0" type="line"/>
      <point x="190.13333333333333" y="1399.0" type="line"/>
    </contour>
  </outline>
</glyph>
<glyph name="backslash" format="2">
  <advance width="760.1866666666666"/>
  <unicode hex="005C"/>
  <outline>
    <contour>
      <point x="701.4266666666666" y="0.0" type="line"/>
      <point x="141.42666666666668" y="1340.0" type="line"/>
      <point x="59.76" y="1340.0" type="line"/>
      <point x="619.76" y="0.0" type="line"/>
    </contour>
  </outline>
</glyph>
<glyph name="i" format="2">
  <advance width="493.26666666666665"/>
  <unicode hex="0069"/>
  <anchor x="242.44" y="1362.0266666666666" name="top"/>
  <anchor x="256.06666666666666" y="0.0" name="bottom"/>
  <anchor x="411.1333333333333" y="0.0" name="right"/>
  <outline>
    <contour>
      <point x="244.44" y="1230.5066666666667" type="curve" smooth="yes"/>
      <point x="302.90666666666664" y="1230.5066666666667"/>
      <point x="340.0" y="1271.8533333333332"/>
      <point x="340.0" y="1325.6933333333334" type="curve" smooth="yes"/>
      <point x="340.0" y="1378.28"/>
      <point x="302.90666666666664" y="1419.0"/>
      <point x="244.44" y="1419.0" type="curve" smooth="yes"/>
      <point x="187.85333333333332" y="1419.0"/>
      <point x="148.88" y="1378.28"/>
      <point x="148.88" y="1325.6933333333334" type="curve" smooth="yes"/>
      <point x="148.88" y="1271.8533333333332"/>
      <point x="187.85333333333332" y="1230.5066666666667"/>
    </contour>
    <contour>
      <point x="313.38666666666666" y="872.0" type="line"/>
      <point x="301.6533333333333" y="872.0" type="line"/>
      <point x="50.986666666666665" y="810.04" type="line"/>
      <point x="50.986666666666665" y="785.3066666666666" type="line"/>
      <point x="111.98666666666666" y="770.568"/>
      <point x="184.50666666666666" y="747.8506666666667"/>
      <point x="206.50666666666666" y="736.1333333333333" type="curve"/>
      <point x="206.50666666666666" y="62.44" type="line"/>
      <point x="54.50666666666667" y="28.226666666666667" type="line"/>
      <point x="54.50666666666667" y="0.0" type="line"/>
      <point x="458.0" y="0.0" type="line"/>
      <point x="458.0" y="28.226666666666667" type="line"/>
      <point x="304.88" y="62.44" type="line"/>
      <point x="304.88" y="751.9866666666667" type="line"/>
    </contour>
  </outline>
</glyph>
<glyph name="q" format="2">
  <advance width="1007.0266666666666"/>
  <unicode hex="0071"/>
  <anchor x="515.7066666666667" y="852.0" name="top"/>
  <anchor x="810.2133333333334" y="-510.0" name="bottom"/>
  <outline>
    <contour>
      <point x="187.97333333333333" y="416.2133333333333" type="curve" smooth="yes"/>
      <point x="187.97333333333333" y="660.28"/>
      <point x="304.52" y="813.44"/>
      <point x="521.7733333333333" y="813.44" type="curve" smooth="yes"/>
      <point x="659.8666666666667" y="813.44"/>
      <point x="762.52" y="740.0933333333334"/>
      <point x="762.52" y="654.28" type="curve" smooth="yes"/>
      <point x="762.52" y="-447.56" type="line"/>
      <point x="591.2666666666667" y="-481.7733333333333" type="line"/>
      <point x="591.2666666666667" y="-510.0" type="line"/>
      <point x="1012.8933333333333" y="-510.0" type="line"/>
      <point x="1012.8933333333333" y="-481.7733333333333" type="line"/>
      <point x="860.8933333333333" y="-447.56" type="line"/>
      <point x="860.8933333333333" y="685.8533333333334" type="line"/>
      <point x="889.7866666666666" y="878.56" type="line"/>
      <point x="866.56" y="886.1733333333333" type="line"/>
      <point x="758.44" y="790.6133333333333" type="line"/>
      <point x="829.6" y="804.4" type="line"/>
      <point x="724.4933333333333" y="854.3866666666667"/>
      <point x="650.4" y="872.0"/>
      <point x="552.24" y="872.0" type="curve" smooth="yes"/>
      <point x="285.26666666666665" y="872.0"/>
      <point x="79.13333333333334" y="691.6666666666666"/>
      <point x="79.13333333333334" y="390.7733333333333" type="curve" smooth="yes"/>
      <point x="79.13333333333334" y="135.6"/>
      <point x="213.76" y="-20.0"/>
      <point x="466.0133333333333" y="-20.0" type="curve" smooth="yes"/>
      <point x="554.7333333333333" y="-20.0"/>
      <point x="625.8666666666667" y="8.466666666666665"/>
      <point x="821.2533333333333" y="124.92" type="curve"/>
      <point x="821.2533333333333" y="175.86666666666667" type="line"/>
      <point x="714.4266666666666" y="93.56"/>
      <point x="609.5333333333333" y="59.8"/>
      <point x="501.18666666666667" y="59.8" type="curve" smooth="yes"/>
      <point x="312.0" y="59.8"/>
      <point x="187.97333333333333" y="190.57333333333332"/>
    </contour>
  </outline>
</glyph>
<glyph name="s" format="2">
  <advance width="698.8533333333334"/>
  <unicode hex="0073"/>
  <anchor x="344.3333333333333" y="852.0" name="top"/>
  <anchor x="370.8933333333333" y="0.0" name="bottom"/>
  <outline>
    <contour>
      <point x="373.48" y="872.0" type="curve" smooth="yes"/>
      <point x="225.38666666666666" y="872.0"/>
      <point x="107.26666666666667" y="776.8533333333334"/>
      <point x="107.26666666666667" y="645.52" type="curve" smooth="yes"/>
      <point x="107.26666666666667" y="507.6533333333333"/>
      <point x="201.30666666666667" y="456.05333333333334"/>
      <point x="306.4533333333333" y="410.81333333333333" type="curve" smooth="yes"/>
      <point x="411.6" y="365.5733333333333"/>
      <point x="522.4533333333334" y="332.6933333333333"/>
      <point x="522.4533333333334" y="214.17333333333335" type="curve" smooth="yes"/>
      <point x="522.4533333333334" y="96.62666666666667"/>
      <point x="435.56" y="26.826666666666664"/>
      <point x="295.14666666666665" y="26.826666666666664" type="curve" smooth="yes"/>
      <point x="231.97333333333333" y="26.826666666666664"/>
      <point x="185.18666666666667" y="37.093333333333334"/>
      <point x="129.61333333333334" y="67.82666666666667" type="curve"/>
      <point x="214.01333333333332" y="9.253333333333334" type="line"/>
      <point x="110.72" y="254.49333333333334" type="line"/>
      <point x="80.64" y="254.49333333333334" type="line"/>
      <point x="109.97333333333333" y="14.746666666666666" type="line"/>
      <point x="166.84" y="-8.746666666666666"/>
      <point x="230.73333333333332" y="-20.0"/>
      <point x="312.12" y="-20.0" type="curve" smooth="yes"/>
      <point x="483.48" y="-20.0"/>
      <point x="611.72" y="79.4"/>
      <point x="611.72" y="236.25333333333333" type="curve" smooth="yes"/>
      <point x="611.72" y="394.50666666666666"/>
      <point x="497.08" y="448.24"/>
      <point x="391.44" y="491.1066666666667" type="curve" smooth="yes"/>
      <point x="285.8" y="533.9733333333334"/>
      <point x="190.04" y="568.9733333333334"/>
      <point x="190.04" y="674.4933333333333" type="curve" smooth="yes"/>
      <point x="190.04" y="762.52"/>
      <point x="252.04" y="821.4266666666666"/>
      <point x="372.0933333333333" y="821.4266666666666" type="curve" smooth="yes"/>
      <point x="430.48" y="821.4266666666666"/>
      <point x="475.8666666666667" y="806.8133333333334"/>
      <point x="535.2666666666667" y="760.92" type="curve"/>
      <point x="469.7733333333333" y="831.76" type="line"/>
      <point x="562.1333333333333" y="596.28" type="line"/>
      <point x="591.3466666666667" y="596.28" type="line"/>
      <point x="571.3333333333334" y="825.3866666666667" type="line"/>
      <point x="504.61333333333334" y="859.0"/>
      <point x="451.8666666666667" y="872.0"/>
    </contour>
  </outline>
</glyph>
<glyph name="braceleft" format="2">
  <advance width="578.52"/>
  <unicode hex="007B"/>
  <outline>
    <contour>
      <point x="35.653333333333336" y="545.28" type="line"/>
      <point x="131.66666666666666" y="541.6533333333333" type="line" smooth="yes"/>
      <point x="225.29333333333332" y="538.0266666666666"/>
      <point x="260.38666666666666" y="487.74666666666667"/>
      <point x="260.38666666666666" y="403.12" type="curve" smooth="yes"/>
      <point x="260.38666666666666" y="239.12"/>
      <point x="208.50666666666666" y="133.85333333333332"/>
      <point x="208.50666666666666" y="15.853333333333333" type="curve" smooth="yes"/>
      <point x="208.50666666666666" y="-119.14666666666666"/>
      <point x="289.01640708748147" y="-245.18164070874815"/>
      <point x="459.6533333333333" y="-264.0" type="curve" smooth="yes"/>
      <point x="532.1333333333333" y="-272.0" type="line"/>
      <point x="537.2533333333333" y="-229.17333333333335" type="line"/>
      <point x="474.88" y="-221.8" type="line" smooth="yes"/>
      <point x="354.6533333333333" y="-207.68"/>
      <point x="311.64" y="-134.82666666666665"/>
      <point x="311.64" y="-24.293333333333333" type="curve" smooth="yes"/>
      <point x="311.64" y="86.84"/>
      <point x="348.14666666666665" y="206.6"/>
      <point x="348.14666666666665" y="348.36" type="curve" smooth="yes"/>
      <point x="348.14666666666665" y="452.02666666666664"/>
      <point x="304.18666666666667" y="554.5333333333333"/>
      <point x="169.18666666666667" y="580.88" type="curve"/>
      <point x="169.18666666666667" y="557.12" type="line"/>
      <point x="304.18666666666667" y="582.84"/>
      <point x="348.14666666666665" y="685.9733333333334"/>
      <point x="348.14666666666665" y="789.64" type="curve" smooth="yes"/>
      <point x="348.14666666666665" y="931.4"/>
      <point x="311.64" y="1051.16"/>
      <point x="311.64" y="1162.2933333333333" type="curve" smooth="yes"/>
      <point x="311.64" y="1272.8266666666666"/>
      <point x="354.6533333333333" y="1345.68"/>
      <point x="474.88" y="1359.8" type="curve" smooth="yes"/>
      <point x="537.2533333333333" y="1367.1733333333334" type="line"/>
      <point x="532.1333333333333" y="1410.0" type="line"/>
      <point x="459.6533333333333" y="1402.0" type="line" smooth="yes"/>
      <point x="289.016634835321" y="1382.5549968168655"/>
      <point x="208.50666666666666" y="1257.1466666666668"/>
      <point x="208.50666666666666" y="1122.1466666666668" type="curve" smooth="yes"/>
      <point x="208.50666666666666" y="1004.1466666666666"/>
      <point x="260.38666666666666" y="898.88"/>
      <point x="260.38666666666666" y="734.88" type="curve" smooth="yes"/>
      <point x="260.38666666666666" y="650.2533333333333"/>
      <point x="225.29333333333332" y="599.3466666666667"/>
      <point x="131.66666666666666" y="595.72" type="curve" smooth="yes"/>
      <point x="35.653333333333336" y="592.0933333333334" type="line"/>
    </contour>
  </outline>
</glyph>
<glyph name="brokenbar" format="2">
  <advance width="456.4266666666667"/>
  <unicode hex="00A6"/>
  <outline>
    <contour>
      <point x="265.29333333333335" y="660.0" type="line"/>
      <point x="265.29333333333335" y="1470.0" type="line"/>
      <point x="191.13333333333333" y="1470.0" type="line"/>
      <point x="191.13333333333333" y="660.0" type="line"/>
    </contour>
    <contour>
      <point x="191.13333333333333" y="-530.0" type="line"/>
      <point x="265.29333333333335" y="-530.0" type="line"/>
      <point x="265.29333333333335" y="280.0" type="line"/>
      <point x="191.13333333333333" y="280.0" type="line"/>
    </contour>
  </outline>
</glyph>
<glyph name="section" format="2">
  <advance width="990.3466666666667"/>
  <unicode hex="00A7"/>
  <outline>
    <contour>
      <point x="440.4266666666667" y="-275.0" type="curve" smooth="yes"/>
      <point x="651.4354385964913" y="-275.0"/>
      <point x="801.4666666666667" y="-155.16060803474485"/>
      <point x="801.4666666666667" y="14.613333333333333" type="curve" smooth="yes"/>
      <point x="801.4666666666667" y="405.64"/>
      <point x="170.90666666666667" y="262.2133333333333"/>
      <point x="170.90666666666667" y="583.04" type="curve" smooth="yes"/>
      <point x="170.90666666666667" y="698.8795663956639"/>
      <point x="243.75759071146877" y="796.2008863613975"/>
      <point x="398.0133333333333" y="834.48" type="curve"/>
      <point x="372.41333333333336" y="871.2933333333333" type="line"/>
      <point x="170.87596255549795" y="815.1926374277899"/>
      <point x="82.13333333333334" y="702.8088262910799"/>
      <point x="82.13333333333334" y="560.5733333333334" type="curve" smooth="yes"/>
      <point x="82.13333333333334" y="174.42666666666668"/>
      <point x="715.44" y="302.2266666666667"/>
      <point x="715.44" y="-12.213333333333333" type="curve" smooth="yes"/>
      <point x="715.44" y="-145.3848484848485"/>
      <point x="612.0417777777778" y="-225.18666666666667"/>
      <point x="458.29333333333335" y="-225.18666666666667" type="curve" smooth="yes"/>
      <point x="311.32" y="-225.18666666666667"/>
      <point x="296.90666666666664" y="-72.2"/>
      <point x="205.81333333333333" y="-72.2" type="curve" smooth="yes"/>
      <point x="164.33333333333334" y="-72.2"/>
      <point x="135.73333333333332" y="-100.56"/>
      <point x="135.73333333333332" y="-140.65333333333334" type="curve" smooth="yes"/>
      <point x="135.73333333333332" y="-200.26666666666668"/>
      <point x="217.36" y="-275.0"/>
    </contour>
    <contour>
      <point x="818.6933333333334" y="534.4933333333333" type="curve" smooth="yes"/>
      <point x="818.6933333333334" y="413.65218106995883"/>
      <point x="726.5333333333333" y="311.5466666666667"/>
      <point x="557.7866666666666" y="282.18666666666667" type="curve"/>
      <point x="595.88" y="245.49333333333334" type="line"/>
      <point x="787.3733333333333" y="285.72"/>
      <point x="907.4666666666667" y="406.9501851851852"/>
      <point x="907.4666666666667" y="560.72" type="curve" smooth="yes"/>
      <point x="907.4666666666667" y="947.4933333333333"/>
      <point x="279.17333333333335" y="819.6933333333334"/>
      <point x="279.17333333333335" y="1109.7466666666667" type="curve" smooth="yes"/>
      <point x="279.17333333333335" y="1230.16"/>
      <point x="371.32" y="1310.1866666666667"/>
      <point x="527.3733333333333" y="1310.1866666666667" type="curve" smooth="yes"/>
      <point x="674.3466666666667" y="1310.1866666666667"/>
      <point x="688.76" y="1157.2"/>
      <point x="779.8533333333334" y="1157.2" type="curve" smooth="yes"/>
      <point x="821.3333333333334" y="1157.2"/>
      <point x="849.9333333333333" y="1185.56"/>
      <point x="849.9333333333333" y="1225.6533333333334" type="curve" smooth="yes"/>
      <point x="849.9333333333333" y="1285.2666666666667"/>
      <point x="768.3066666666666" y="1360.0"/>
      <point x="545.24" y="1360.0" type="curve" smooth="yes"/>
      <point x="333.74666666666667" y="1360.0"/>
      <point x="192.52" y="1253.0"/>
      <point x="192.52" y="1084.7733333333333" type="curve" smooth="yes"/>
      <point x="192.52" y="709.92"/>
      <point x="818.6933333333334" y="856.5733333333334"/>
    </contour>
  </outline>
</glyph>
<glyph name="registered" format="2">
  <advance width="1088.76"/>
  <unicode hex="00AE"/>
  <outline>
    <contour>
      <point x="541.88" y="1360.0" type="curve" smooth="yes"/>
      <point x="291.88" y="1360.0"/>
      <point x="112.88" y="1183.0"/>
      <point x="112.88" y="934.0" type="curve" smooth="yes"/>
      <point x="112.88" y="686.0"/>
      <point x="291.88" y="506.0"/>
      <point x="541.88" y="506.0" type="curve" smooth="yes"/>
      <point x="793.88" y="506.0"/>
      <point x="975.88" y="686.0"/>
      <point x="975.88" y="934.0" type="curve" smooth="yes"/>
      <point x="975.88" y="1183.0"/>
      <point x="793.88" y="1360.0"/>
    </contour>
    <contour>
      <point x="541.88" y="1308.8" type="curve" smooth="yes"/>
      <point x="760.16" y="1308.8"/>
      <point x="917.68" y="1155.6533333333334"/>
      <point x="917.68" y="934.0" type="curve" smooth="yes"/>
      <point x="917.68" y="714.3466666666667"/>
      <point x="760.16" y="558.2"/>
      <point x="541.88" y="558.2" type="curve" smooth="yes"/>
      <point x="325.6" y="558.2"/>
      <point x="171.07999999999998" y="714.3466666666667"/>
      <point x="171.07999999999998" y="934.0" type="curve" smooth="yes"/>
      <point x="171.07999999999998" y="1155.6533333333334"/>
      <point x="325.6" y="1308.8"/>
    </contour>
    <contour>
      <point x="433.28" y="964.7466666666667" type="line"/>
      <point x="430.16" y="923.0266666666666" type="line"/>
      <point x="549.8933333333333" y="923.0266666666666" type="line" smooth="yes"/>
      <point x="582.64" y="923.0266666666666"/>
      <point x="597.8933333333333" y="916.28"/>
      <point x="618.4" y="865.9066666666666" type="curve" smooth="yes"/>
      <point x="653.1733333333333" y="779.2533333333333" type="line" smooth="yes"/>
      <point x="677.56" y="717.3733333333333"/>
      <point x="690.4133333333333" y="712.6266666666667"/>
      <point x="782.2666666666667" y="716.3733333333333" type="curve"/>
      <point x="782.2666666666667" y="743.6" type="line"/>
      <point x="752.2533333333333" y="742.9733333333334"/>
      <point x="741.2533333333333" y="747.72"/>
      <point x="724.6266666666667" y="789.84" type="curve" smooth="yes"/>
      <point x="683.24" y="884.48" type="line" smooth="yes"/>
      <point x="662.2266666666667" y="933.3733333333333"/>
      <point x="642.8533333333334" y="947.88"/>
      <point x="583.24" y="947.88" type="curve"/>
      <point x="583.24" y="943.64" type="line"/>
      <point x="671.2133333333334" y="951.3866666666667"/>
      <point x="712.0933333333334" y="999.3733333333333"/>
      <point x="712.0933333333334" y="1054.1333333333334" type="curve" smooth="yes"/>
      <point x="712.0933333333334" y="1118.3733333333332"/>
      <point x="669.9733333333334" y="1166.0"/>
      <point x="555.1066666666667" y="1166.0" type="curve" smooth="yes"/>
      <point x="424.6666666666667" y="1166.0" type="line"/>
      <point x="427.7866666666667" y="1126.28" type="line"/>
      <point x="507.84" y="1126.28" type="line" smooth="yes"/>
      <point x="605.88" y="1126.28"/>
      <point x="637.7733333333333" y="1097.28"/>
      <point x="637.7733333333333" y="1047.52" type="curve" smooth="yes"/>
      <point x="637.7733333333333" y="989.88"/>
      <point x="599.5066666666667" y="964.7466666666667"/>
      <point x="545.1066666666667" y="964.7466666666667" type="curve" smooth="yes"/>
    </contour>
    <contour>
      <point x="409.4" y="1128.0266666666666" type="line"/>
      <point x="409.4" y="756.3466666666667" type="line"/>
      <point x="346.62666666666667" y="740.2266666666667" type="line"/>
      <point x="346.62666666666667" y="717.0" type="line"/>
      <point x="540.0" y="717.0" type="line"/>
      <point x="540.0" y="740.2266666666667" type="line"/>
      <point x="478.6" y="756.3466666666667" type="line"/>
      <point x="478.6" y="1166.0" type="line"/>
      <point x="346.62666666666667" y="1166.0" type="line"/>
      <point x="346.62666666666667" y="1143.52" type="line"/>
    </contour>
  </outline>
</glyph>
<glyph name="ae" format="2">
  <advance width="1357.4133333333334"/>
  <unicode hex="00E6"/>
  <anchor x="690.52" y="852.0" name="top"/>
  <anchor x="676.3333333333334" y="0.0" name="bottom"/>
  <outline>
    <contour>
      <point x="400.46666666666664" y="799.3066666666666" type="curve" smooth="yes"/>
      <point x="532.2666666666667" y="799.3066666666666"/>
      <point x="582.0266666666666" y="732.2933333333333"/>
      <point x="582.0266666666666" y="623.1333333333333" type="curve" smooth="yes"/>
      <point x="582.0266666666666" y="290.1333333333333" type="line" smooth="yes"/>
      <point x="582.0266666666666" y="155.98666666666668"/>
      <point x="479.9866666666667" y="55.78666666666666"/>
      <point x="354.3333333333333" y="55.78666666666666" type="curve" smooth="yes"/>
      <point x="256.02666666666664" y="55.78666666666666"/>
      <point x="190.89333333333332" y="109.8"/>
      <point x="190.89333333333332" y="208.32" type="curve" smooth="yes"/>
      <point x="190.89333333333332" y="316.88"/>
      <point x="233.77333333333334" y="386.49333333333334"/>
      <point x="634.0933333333334" y="491.8" type="curve"/>
      <point x="628.12" y="535.12" type="line"/>
      <point x="154.12" y="412.48"/>
      <point x="87.89333333333333" y="322.2266666666667"/>
      <point x="87.89333333333333" y="190.73333333333332" type="curve" smooth="yes"/>
      <point x="87.89333333333333" y="52.10666666666667"/>
      <point x="185.76" y="-20.0"/>
      <point x="320.0" y="-20.0" type="curve" smooth="yes"/>
      <point x="473.62666666666667" y="-20.0"/>
      <point x="582.7733333333333" y="77.89333333333333"/>
      <point x="603.5066666666667" y="257.61333333333334" type="curve"/>
      <point x="585.0266666666666" y="258.73333333333335" type="line"/>
      <point x="629.12" y="90.86666666666666"/>
      <point x="777.3664239028944" y="-20.0"/>
      <point x="954.2" y="-20.0" type="curve" smooth="yes"/>
      <point x="1086.68" y="-20.0"/>
      <point x="1175.1333333333334" y="27.866666666666667"/>
      <point x="1290.16" y="143.2" type="curve"/>
      <point x="1270.8" y="166.44" type="line"/>
      <point x="1181.7466666666667" y="93.4"/>
      <point x="1108.7466666666667" y="66.16"/>
      <point x="1027.48" y="66.16" type="curve" smooth="yes"/>
      <point x="813.6666666666666" y="66.16"/>
      <point x="680.4" y="212.68"/>
      <point x="680.4" y="446.58666666666664" type="curve" smooth="yes"/>
      <point x="680.4" y="687.16"/>
      <point x="781.2" y="814.3066666666666"/>
      <point x="946.8133333333334" y="814.3066666666666" type="curve" smooth="yes"/>
      <point x="1080.1066666666666" y="814.3066666666666"/>
      <point x="1152.9066666666668" y="707.16"/>
      <point x="1165.6533333333334" y="529.6933333333334" type="curve"/>
      <point x="1209.84" y="563.7466666666667" type="line"/>
      <point x="664.4266666666666" y="536.6133333333333" type="line"/>
      <point x="663.68" y="493.4266666666667" type="line"/>
      <point x="1280.7733333333333" y="493.4266666666667" type="line"/>
      <point x="1265.28" y="714.5866666666667"/>
      <point x="1168.5733333333333" y="872.0"/>
      <point x="959.9333333333333" y="872.0" type="curve" smooth="yes"/>
      <point x="815.64" y="872.0"/>
      <point x="696.8933333333333" y="795.36"/>
      <point x="637.0" y="677.4533333333334" type="curve"/>
      <point x="670.0533333333333" y="677.4533333333334" type="line"/>
      <point x="659.2001357517725" y="793.3439516312178"/>
      <point x="601.3884593837535" y="862.3733333333333"/>
      <point x="440.15999999999997" y="862.3733333333333" type="curve" smooth="yes"/>
      <point x="288.37333333333333" y="862.3733333333333"/>
      <point x="95.88" y="744.7466666666667"/>
      <point x="95.88" y="675.28" type="curve" smooth="yes"/>
      <point x="95.88" y="652.1733333333333"/>
      <point x="115.86666666666666" y="634.3066666666666"/>
      <point x="149.09333333333333" y="634.3066666666666" type="curve" smooth="yes"/>
      <point x="174.82666666666665" y="634.3066666666666"/>
      <point x="203.18666666666667" y="642.4266666666666"/>
      <point x="219.54666666666665" y="659.7866666666666" type="curve" smooth="yes"/>
      <point x="239.04" y="679.6533333333333"/>
      <point x="247.53333333333333" y="726.24"/>
      <point x="257.6666666666667" y="784.7466666666667" type="curve"/>
      <point x="201.02666666666667" y="748.7733333333333" type="line"/>
      <point x="282.46666666666664" y="785.92"/>
      <point x="349.3333333333333" y="799.3066666666666"/>
    </contour>
  </outline>
</glyph>
<glyph name="Eogonek" format="2">
  <advance width="1201.9066666666668"/>
  <unicode hex="0118"/>
  <outline>
    <contour>
      <point x="841.3866666666667" y="967.5066666666667" type="line"/>
      <point x="798.0933333333334" y="967.5066666666667" type="line"/>
      <point x="757.2933333333333" y="736.84" type="line"/>
      <point x="299.24" y="731.8266666666667" type="line"/>
      <point x="299.24" y="671.6666666666666" type="line"/>
      <point x="757.2933333333333" y="668.5333333333333" type="line"/>
      <point x="798.0933333333334" y="436.61333333333334" type="line"/>
      <point x="841.3866666666667" y="436.61333333333334" type="line"/>
      <point x="832.6133333333333" y="701.7466666666667" type="line"/>
    </contour>
    <contour>
      <point x="1093.76" y="989.5733333333334" type="line"/>
      <point x="1038.16" y="1381.48" type="line"/>
      <point x="1025.92" y="1381.48" type="line"/>
      <point x="937.1066666666667" y="1340.0" type="line"/>
      <point x="290.46666666666664" y="1340.0" type="line"/>
      <point x="290.46666666666664" y="1276.08" type="line"/>
      <point x="979.3733333333333" y="1276.08" type="line"/>
      <point x="922.4933333333333" y="1295.8266666666666" type="line"/>
      <point x="1061.8" y="983.7066666666667" type="line"/>
    </contour>
    <contour>
      <point x="944.2533333333333" y="36.04" type="line"/>
      <point x="994.8933333333333" y="63.92" type="line"/>
      <point x="290.46666666666664" y="63.92" type="line"/>
      <point x="290.46666666666664" y="0.0" type="line"/>
      <point x="960.7466666666667" y="0.0" type="line"/>
      <point x="1050.0533333333333" y="-50.85333333333333" type="line"/>
      <point x="1061.04" y="-50.85333333333333" type="line"/>
      <point x="1136.1733333333334" y="349.94666666666666" type="line"/>
      <point x="1107.08" y="358.44" type="line"/>
    </contour>
    <contour>
      <point x="76.22666666666666" y="0.0" type="line"/>
      <point x="350.36" y="0.0" type="line"/>
      <point x="350.36" y="1340.0" type="line"/>
      <point x="76.22666666666666" y="1340.0" type="line"/>
      <point x="76.22666666666666" y="1311.6533333333334" type="line"/>
      <point x="243.0" y="1273.44" type="line"/>
      <point x="243.0" y="66.56" type="line"/>
      <point x="76.22666666666666" y="28.346666666666664" type="line"/>
    </contour>
    <contour>
      <point x="884.1066666666667" y="-129.24" type="curve" smooth="yes"/>
      <point x="978.7466666666667" y="29.08" type="line"/>
      <point x="940.16" y="29.08" type="line"/>
      <point x="822.0266666666666" y="-133.4" type="line" smooth="yes"/>
      <point x="731.9866666666667" y="-255.93333333333334"/>
      <point x="713.1066666666667" y="-319.56"/>
      <point x="713.1066666666667" y="-373.53333333333336" type="curve" smooth="yes"/>
      <point x="713.1066666666667" y="-470.76"/>
      <point x="774.2" y="-530.0"/>
      <point x="869.9466666666667" y="-530.0" type="curve" smooth="yes"/>
      <point x="949.5466666666666" y="-530.0"/>
      <point x="1008.76" y="-494.6533333333333"/>
      <point x="1091.6533333333334" y="-393.81333333333333" type="curve"/>
      <point x="1070.8" y="-371.4533333333333" type="line"/>
      <point x="1009.0666666666667" y="-433.68"/>
      <point x="962.3066666666666" y="-457.5733333333333"/>
      <point x="909.9066666666666" y="-457.5733333333333" type="curve" smooth="yes"/>
      <point x="843.7733333333333" y="-457.5733333333333"/>
      <point x="800.6533333333333" y="-417.06666666666666"/>
      <point x="800.6533333333333" y="-347.81333333333333" type="curve" smooth="yes"/>
      <point x="800.6533333333333" y="-290.92"/>
      <point x="816.7866666666666" y="-237.30666666666667"/>
    </contour>
  </outline>
</glyph>
<glyph name="eogonek" format="2">
  <advance width="869.6"/>
  <unicode hex="0119"/>
  <outline>
    <contour>
      <point x="802.3466666666667" y="143.2" type="line"/>
      <point x="782.9866666666667" y="166.44" type="line"/>
      <point x="693.9333333333333" y="90.89333333333333"/>
      <point x="620.3066666666666" y="63.65333333333333"/>
      <point x="534.0266666666666" y="63.65333333333333" type="curve" smooth="yes"/>
      <point x="317.25333333333333" y="63.65333333333333"/>
      <point x="178.88" y="210.8"/>
      <point x="178.88" y="449.0933333333333" type="curve" smooth="yes"/>
      <point x="178.88" y="686.5333333333333"/>
      <point x="284.78666666666663" y="816.8133333333334"/>
      <point x="449.6" y="816.8133333333334" type="curve" smooth="yes"/>
      <point x="591.6666666666666" y="816.8133333333334"/>
      <point x="668.8533333333334" y="714.0533333333333"/>
      <point x="681.6" y="544.7333333333333" type="curve"/>
      <point x="722.0266666666666" y="588.6133333333333" type="line"/>
      <point x="165.41333333333333" y="562.7333333333333" type="line"/>
      <point x="164.66666666666666" y="519.5466666666666" type="line"/>
      <point x="792.96" y="519.5466666666666" type="line"/>
      <point x="776.3466666666667" y="725.2133333333334"/>
      <point x="677.4" y="872.0"/>
      <point x="472.12" y="872.0" type="curve" smooth="yes"/>
      <point x="228.13333333333333" y="872.0"/>
      <point x="78.76" y="665.0"/>
      <point x="78.76" y="416.50666666666666" type="curve" smooth="yes"/>
      <point x="78.76" y="155.85333333333332"/>
      <point x="237.73333333333332" y="-20.0"/>
      <point x="471.61333333333334" y="-20.0" type="curve" smooth="yes"/>
      <point x="572.6666666666666" y="-20.0"/>
      <point x="644.8" y="10.4"/>
      <point x="730.7333333333333" y="77.58666666666667" type="curve"/>
      <point x="720.6133333333333" y="86.82666666666667" type="line"/>
      <point x="565.8133333333334" y="-125.28" type="line" smooth="yes"/>
      <point x="476.29333333333335" y="-247.70666666666668"/>
      <point x="455.3066666666667" y="-310.18666666666667"/>
      <point x="455.3066666666667" y="-372.28" type="curve" smooth="yes"/>
      <point x="455.3066666666667" y="-469.50666666666666"/>
      <point x="516.4" y="-530.0"/>
      <point x="612.1466666666666" y="-530.0" type="curve" smooth="yes"/>
      <point x="691.7466666666667" y="-530.0"/>
      <point x="750.96" y="-494.6533333333333"/>
      <point x="833.8533333333334" y="-393.81333333333333" type="curve"/>
      <point x="813.0" y="-371.4533333333333" type="line"/>
      <point x="751.2666666666667" y="-433.68"/>
      <point x="704.5066666666667" y="-457.5733333333333"/>
      <point x="652.1066666666667" y="-457.5733333333333" type="curve" smooth="yes"/>
      <point x="585.9733333333334" y="-457.5733333333333"/>
      <point x="542.8533333333334" y="-417.06666666666666"/>
      <point x="542.8533333333334" y="-347.81333333333333" type="curve" smooth="yes"/>
      <point x="542.8533333333334" y="-287.56"/>
      <point x="561.6" y="-228.08"/>
      <point x="638.7333333333333" y="-108.68" type="curve" smooth="yes"/>
    </contour>
  </outline>
</glyph>
<glyph name="Iogonek" format="2">
  <advance width="593.36"/>
  <unicode hex="012E"/>
  <outline>
    <contour>
      <point x="517.1333333333333" y="28.346666666666664" type="line"/>
      <point x="350.36" y="66.56" type="line"/>
      <point x="350.36" y="1273.44" type="line"/>
      <point x="517.1333333333333" y="1311.6533333333334" type="line"/>
      <point x="517.1333333333333" y="1340.0" type="line"/>
      <point x="76.22666666666666" y="1340.0" type="line"/>
      <point x="76.22666666666666" y="1311.6533333333334" type="line"/>
      <point x="243.0" y="1273.44" type="line"/>
      <point x="243.0" y="66.56" type="line"/>
      <point x="76.22666666666666" y="28.346666666666664" type="line"/>
      <point x="76.22666666666666" y="0.0" type="line"/>
      <point x="517.1333333333333" y="0.0" type="line"/>
    </contour>
    <contour>
      <point x="255.51999999999998" y="-130.49333333333334" type="curve" smooth="yes"/>
      <point x="330.73333333333335" y="29.08" type="line"/>
      <point x="292.14666666666665" y="29.08" type="line"/>
      <point x="194.06666666666666" y="-134.65333333333334" type="line" smooth="yes"/>
      <point x="118.44" y="-262.82666666666665"/>
      <point x="106.45333333333333" y="-318.3066666666667"/>
      <point x="106.45333333333333" y="-372.28" type="curve" smooth="yes"/>
      <point x="106.45333333333333" y="-469.50666666666666"/>
      <point x="167.54666666666665" y="-530.0"/>
      <point x="263.29333333333335" y="-530.0" type="curve" smooth="yes"/>
      <point x="342.8933333333333" y="-530.0"/>
      <point x="402.1066666666667" y="-494.6533333333333"/>
      <point x="485.0" y="-393.81333333333333" type="curve"/>
      <point x="464.14666666666665" y="-371.4533333333333" type="line"/>
      <point x="402.41333333333336" y="-433.68"/>
      <point x="355.6533333333333" y="-457.5733333333333"/>
      <point x="303.25333333333333" y="-457.5733333333333" type="curve" smooth="yes"/>
      <point x="237.12" y="-457.5733333333333"/>
      <point x="194.0" y="-417.06666666666666"/>
      <point x="194.0" y="-347.81333333333333" type="curve" smooth="yes"/>
      <point x="194.0" y="-290.92"/>
      <point x="202.61333333333334" y="-244.2"/>
    </contour>
  </outline>
</glyph>
<glyph name="iogonek" format="2">
  <advance width="493.26666666666665"/>
  <unicode hex="012F"/>
  <outline>
    <contour>
      <point x="244.44" y="1230.5066666666667" type="curve" smooth="yes"/>
      <point x="302.90666666666664" y="1230.5066666666667"/>
      <point x="340.0" y="1271.8533333333332"/>
      <point x="340.0" y="1325.6933333333334" type="curve" smooth="yes"/>
      <point x="340.0" y="1378.28"/>
      <point x="302.90666666666664" y="1419.0"/>
      <point x="244.44" y="1419.0" type="curve" smooth="yes"/>
      <point x="187.85333333333332" y="1419.0"/>
      <point x="148.88" y="1378.28"/>
      <point x="148.88" y="1325.6933333333334" type="curve" smooth="yes"/>
      <point x="148.88" y="1271.8533333333332"/>
      <point x="187.85333333333332" y="1230.5066666666667"/>
    </contour>
    <contour>
      <point x="313.38666666666666" y="872.0" type="line"/>
      <point x="301.6533333333333" y="872.0" type="line"/>
      <point x="50.986666666666665" y="810.04" type="line"/>
      <point x="50.986666666666665" y="785.3066666666666" type="line"/>
      <point x="111.98666666666666" y="770.568"/>
      <point x="184.50666666666666" y="747.8506666666667"/>
      <point x="206.50666666666666" y="736.1333333333333" type="curve"/>
      <point x="206.50666666666666" y="62.44" type="line"/>
      <point x="54.50666666666667" y="28.226666666666667" type="line"/>
      <point x="54.50666666666667" y="0.0" type="line"/>
      <point x="458.0" y="0.0" type="line"/>
      <point x="458.0" y="28.226666666666667" type="line"/>
      <point x="304.88" y="62.44" type="line"/>
      <point x="304.88" y="751.9866666666667" type="line"/>
    </contour>
    <contour>
      <point x="215.04" y="-130.49333333333334" type="curve" smooth="yes"/>
      <point x="288.37333333333333" y="17.173333333333332" type="line"/>
      <point x="246.65333333333334" y="17.173333333333332" type="line"/>
      <point x="153.58666666666667" y="-134.65333333333334" type="line" smooth="yes"/>
      <point x="76.70666666666666" y="-261.5733333333333"/>
      <point x="64.09333333333333" y="-318.3066666666667"/>
      <point x="64.09333333333333" y="-372.28" type="curve" smooth="yes"/>
      <point x="64.09333333333333" y="-469.50666666666666"/>
      <point x="125.18666666666667" y="-530.0"/>
      <point x="220.93333333333334" y="-530.0" type="curve" smooth="yes"/>
      <point x="300.5333333333333" y="-530.0"/>
      <point x="359.74666666666667" y="-494.6533333333333"/>
      <point x="442.64" y="-393.81333333333333" type="curve"/>
      <point x="421.78666666666663" y="-371.4533333333333" type="line"/>
      <point x="360.05333333333334" y="-433.68"/>
      <point x="313.29333333333335" y="-457.5733333333333"/>
      <point x="260.8933333333333" y="-457.5733333333333" type="curve" smooth="yes"/>
      <point x="194.76" y="-457.5733333333333"/>
      <point x="151.64" y="-417.06666666666666"/>
      <point x="151.64" y="-347.81333333333333" type="curve" smooth="yes"/>
      <point x="151.64" y="-290.92"/>
      <point x="159.62666666666667" y="-242.32"/>
    </contour>
  </outline>
</glyph>
<glyph name="Tbar" format="2">
  <advance width="1255.6266666666666"/>
  <unicode hex="0166"/>
  <outline>
    <contour>
      <point x="285.64" y="662.16" type="line"/>
      <point x="969.9866666666667" y="662.16" type="line"/>
      <point x="969.9866666666667" y="730.4666666666667" type="line"/>
      <point x="285.64" y="730.4666666666667" type="line"/>
    </contour>
    <contour>
      <point x="574.1333333333333" y="1309.08" type="line"/>
      <point x="574.1333333333333" y="66.56" type="line"/>
      <point x="407.36" y="28.346666666666664" type="line"/>
      <point x="407.36" y="0.0" type="line"/>
      <point x="848.2666666666667" y="0.0" type="line"/>
      <point x="848.2666666666667" y="28.346666666666664" type="line"/>
      <point x="681.4933333333333" y="66.56" type="line"/>
      <point x="681.4933333333333" y="1309.08" type="line"/>
    </contour>
    <contour>
      <point x="1126.0133333333333" y="1276.08" type="line"/>
      <point x="1059.08" y="1291.9466666666667" type="line"/>
      <point x="1177.16" y="980.2533333333333" type="line"/>
      <point x="1209.3733333333332" y="986.7466666666667" type="line"/>
      <point x="1165.6133333333332" y="1405.4933333333333" type="line"/>
      <point x="1152.0" y="1405.4933333333333" type="line"/>
      <point x="1047.9733333333334" y="1327.76" type="line"/>
      <point x="1102.3866666666668" y="1340.0" type="line"/>
      <point x="153.24" y="1340.0" type="line"/>
      <point x="207.65333333333334" y="1327.76" type="line"/>
      <point x="103.62666666666667" y="1405.4933333333333" type="line"/>
      <point x="90.01333333333334" y="1405.4933333333333" type="line"/>
      <point x="46.25333333333333" y="986.12" type="line"/>
      <point x="78.46666666666667" y="980.2533333333333" type="line"/>
      <point x="196.54666666666665" y="1291.9466666666667" type="line"/>
      <point x="129.61333333333334" y="1276.08" type="line"/>
    </contour>
  </outline>
</glyph>
<glyph name="uogonek" format="2">
  <advance width="1017.36"/>
  <unicode hex="0173"/>
  <outline>
    <contour>
      <point x="274.8933333333333" y="288.8933333333333" type="curve" smooth="yes"/>
      <point x="274.8933333333333" y="775.4266666666666" type="line"/>
      <point x="284.52" y="868.2533333333333" type="line"/>
      <point x="4.439999999999998" y="852.3733333333333" type="line"/>
      <point x="4.439999999999998" y="823.4" type="line"/>
      <point x="176.52" y="774.68" type="line"/>
      <point x="176.52" y="265.32" type="line" smooth="yes"/>
      <point x="176.52" y="68.84"/>
      <point x="248.64" y="-20.0"/>
      <point x="426.81333333333333" y="-20.0" type="curve" smooth="yes"/>
      <point x="534.3733333333333" y="-20.0"/>
      <point x="616.48" y="11.826666666666664"/>
      <point x="773.6666666666666" y="161.09333333333333" type="curve"/>
      <point x="746.9466666666667" y="181.54666666666665" type="line"/>
      <point x="664.6933333333334" y="104.73333333333332"/>
      <point x="564.9333333333333" y="75.13333333333333"/>
      <point x="489.3466666666667" y="75.13333333333333" type="curve" smooth="yes"/>
      <point x="323.78666666666663" y="75.13333333333333"/>
      <point x="274.8933333333333" y="123.65333333333334"/>
    </contour>
    <contour>
      <point x="743.3066666666666" y="-18.506666666666668" type="line"/>
      <point x="756.4133333333333" y="-18.506666666666668" type="line"/>
      <point x="997.92" y="47.12" type="line"/>
      <point x="997.92" y="69.6" type="line"/>
      <point x="955.92" y="75.16615384615385"/>
      <point x="860.4533333333334" y="95.17934065934065"/>
      <point x="836.4533333333334" y="106.78666666666666" type="curve"/>
      <point x="836.4533333333334" y="775.4266666666666" type="line"/>
      <point x="846.4533333333334" y="868.2533333333333" type="line"/>
      <point x="565.6266666666667" y="852.3733333333333" type="line"/>
      <point x="565.6266666666667" y="823.4" type="line"/>
      <point x="737.7066666666667" y="774.68" type="line"/>
      <point x="737.7066666666667" y="152.84" type="line"/>
    </contour>
    <contour>
      <point x="721.16" y="-131.74666666666667" type="curve" smooth="yes"/>
      <point x="813.2933333333333" y="54.77333333333333" type="line"/>
      <point x="774.7066666666667" y="54.77333333333333" type="line"/>
      <point x="659.7066666666667" y="-135.90666666666667" type="line" smooth="yes"/>
      <point x="582.8266666666667" y="-262.82666666666665"/>
      <point x="570.2133333333334" y="-318.3066666666667"/>
      <point x="570.2133333333334" y="-372.28" type="curve" smooth="yes"/>
      <point x="570.2133333333334" y="-469.50666666666666"/>
      <point x="631.3066666666666" y="-530.0"/>
      <point x="727.0533333333333" y="-530.0" type="curve" smooth="yes"/>
      <point x="806.6533333333333" y="-530.0"/>
      <point x="865.8666666666667" y="-494.6533333333333"/>
      <point x="948.76" y="-393.81333333333333" type="curve"/>
      <point x="927.9066666666666" y="-371.4533333333333" type="line"/>
      <point x="866.1733333333333" y="-433.68"/>
      <point x="819.4133333333333" y="-457.5733333333333"/>
      <point x="767.0133333333333" y="-457.5733333333333" type="curve" smooth="yes"/>
      <point x="700.88" y="-457.5733333333333"/>
      <point x="657.76" y="-417.06666666666666"/>
      <point x="657.76" y="-347.81333333333333" type="curve" smooth="yes"/>
      <point x="657.76" y="-290.92"/>
      <point x="665.7466666666667" y="-244.2"/>
    </contour>
  </outline>
</glyph>
<glyph name="uni018F" format="2">
  <advance width="1358.6266666666668"/>
  <unicode hex="018F"/>
  <outline>
    <contour>
      <point x="172.95999999999998" y="472.92" type="line"/>
      <point x="1202.1733333333334" y="472.92" type="line"/>
      <point x="1203.2933333333333" y="536.84" type="line"/>
      <point x="96.41333333333333" y="536.84" type="line"/>
      <point x="125.28" y="178.10666666666665"/>
      <point x="300.1066666666667" y="-20.0"/>
      <point x="632.5066666666667" y="-20.0" type="curve" smooth="yes"/>
      <point x="983.5333333333333" y="-20.0"/>
      <point x="1258.24" y="241.72"/>
      <point x="1258.24" y="682.8666666666667" type="curve" smooth="yes"/>
      <point x="1258.24" y="1087.4133333333334"/>
      <point x="1027.72" y="1360.0"/>
      <point x="633.92" y="1360.0" type="curve" smooth="yes"/>
      <point x="425.18666666666667" y="1360.0"/>
      <point x="291.6" y="1302.16"/>
      <point x="90.86666666666666" y="1141.8133333333333" type="curve"/>
      <point x="120.82666666666667" y="1100.36" type="line"/>
      <point x="285.7866666666667" y="1221.6666666666667"/>
      <point x="409.96" y="1270.5066666666667"/>
      <point x="616.24" y="1270.5066666666667" type="curve" smooth="yes"/>
      <point x="932.68" y="1270.5066666666667"/>
      <point x="1146.1466666666668" y="1036.8266666666666"/>
      <point x="1146.1466666666668" y="647.56" type="curve" smooth="yes"/>
      <point x="1146.1466666666668" y="239.11678160919539"/>
      <point x="915.7866666666666" y="39.413333333333334"/>
      <point x="641.0933333333334" y="39.413333333333334" type="curve" smooth="yes"/>
      <point x="385.2198069784707" y="39.413333333333334"/>
      <point x="246.2127522927882" y="206.24941897304797"/>
      <point x="226.84" y="495.5733333333333" type="curve"/>
    </contour>
  </outline>
</glyph>
<glyph name="uni01EA" format="2">
  <advance width="1498.0533333333333"/>
  <unicode hex="01EA"/>
  <outline>
    <contour>
      <point x="741.5733333333334" y="1360.0" type="curve" smooth="yes"/>
      <point x="368.61333333333334" y="1360.0"/>
      <point x="97.76" y="1070.4933333333333"/>
      <point x="97.76" y="668.6266666666667" type="curve" smooth="yes"/>
      <point x="97.76" y="268.38666666666666"/>
      <point x="377.76" y="-20.0"/>
      <point x="756.48" y="-20.0" type="curve" smooth="yes"/>
      <point x="1129.44" y="-20.0"/>
      <point x="1400.2933333333333" y="269.50666666666666"/>
      <point x="1400.2933333333333" y="671.3733333333333" type="curve" smooth="yes"/>
      <point x="1400.2933333333333" y="1071.6133333333332"/>
      <point x="1120.2933333333333" y="1360.0"/>
    </contour>
    <contour>
      <point x="757.2133333333334" y="41.29333333333334" type="curve" smooth="yes"/>
      <point x="441.02666666666664" y="41.29333333333334"/>
      <point x="214.10666666666665" y="283.4533333333333"/>
      <point x="214.10666666666665" y="688.0933333333334" type="curve" smooth="yes"/>
      <point x="214.10666666666665" y="1049.2533333333333"/>
      <point x="410.1333333333333" y="1298.7066666666667"/>
      <point x="740.84" y="1298.7066666666667" type="curve" smooth="yes"/>
      <point x="1057.0266666666666" y="1298.7066666666667"/>
      <point x="1283.9466666666667" y="1056.5466666666666"/>
      <point x="1283.9466666666667" y="651.9066666666666" type="curve" smooth="yes"/>
      <point x="1283.9466666666667" y="290.74666666666667"/>
      <point x="1087.92" y="41.29333333333334"/>
    </contour>
    <contour>
      <point x="741.2666666666667" y="-131.74666666666667" type="curve" smooth="yes"/>
      <point x="813.9733333333334" y="17.173333333333332" type="line"/>
      <point x="772.2533333333333" y="17.173333333333332" type="line"/>
      <point x="679.8133333333333" y="-135.90666666666667" type="line" smooth="yes"/>
      <point x="604.8133333333333" y="-262.82666666666665"/>
      <point x="593.4533333333334" y="-318.3066666666667"/>
      <point x="593.4533333333334" y="-372.28" type="curve" smooth="yes"/>
      <point x="593.4533333333334" y="-469.50666666666666"/>
      <point x="654.5466666666666" y="-530.0"/>
      <point x="750.2933333333333" y="-530.0" type="curve" smooth="yes"/>
      <point x="829.8933333333333" y="-530.0"/>
      <point x="889.1066666666667" y="-494.6533333333333"/>
      <point x="972.0" y="-393.81333333333333" type="curve"/>
      <point x="951.1466666666666" y="-371.4533333333333" type="line"/>
      <point x="889.4133333333333" y="-433.68"/>
      <point x="842.6533333333333" y="-457.5733333333333"/>
      <point x="790.2533333333333" y="-457.5733333333333" type="curve" smooth="yes"/>
      <point x="724.12" y="-457.5733333333333"/>
      <point x="681.0" y="-417.06666666666666"/>
      <point x="681.0" y="-347.81333333333333" type="curve" smooth="yes"/>
      <point x="681.0" y="-290.92"/>
      <point x="687.7333333333333" y="-244.2"/>
    </contour>
  </outline>
</glyph>
<glyph name="tildecomb" format="2">
  <unicode hex="0303"/>
  <anchor x="1.2533333333333334" y="852.0" name="_top"/>
  <anchor x="1.2533333333333334" y="1255.0" name="top"/>
  <outline>
    <contour>
      <point x="257.46666666666664" y="1319.7333333333333" type="curve"/>
      <point x="212.89333333333335" y="1319.7333333333333" type="line"/>
      <point x="181.76" y="1162.8133333333333"/>
      <point x="158.25333333333333" y="1121.28"/>
      <point x="120.6" y="1121.28" type="curve" smooth="yes"/>
      <point x="46.36" y="1121.28"/>
      <point x="-6.773333333333333" y="1329.7333333333333"/>
      <point x="-106.97333333333333" y="1329.7333333333333" type="curve" smooth="yes"/>
      <point x="-179.41333333333333" y="1329.7333333333333"/>
      <point x="-219.96" y="1271.0666666666666"/>
      <point x="-257.46666666666664" y="1029.2666666666667" type="curve"/>
      <point x="-212.89333333333335" y="1029.2666666666667" type="line"/>
      <point x="-181.76" y="1186.1866666666667"/>
      <point x="-158.88" y="1227.72"/>
      <point x="-120.6" y="1227.72" type="curve" smooth="yes"/>
      <point x="-46.986666666666665" y="1227.72"/>
      <point x="6.1466666666666665" y="1019.2666666666667"/>
      <point x="109.48" y="1019.2666666666667" type="curve" smooth="yes"/>
      <point x="179.41333333333333" y="1019.2666666666667"/>
      <point x="219.96" y="1077.9333333333334"/>
    </contour>
  </outline>
</glyph>
<glyph name="uni0328" format="2">
  <unicode hex="0328"/>
  <anchor x="0.0" y="0.0" name="_right"/>
  <outline>
    <contour>
      <point x="-188.57333333333332" y="-131.74666666666667" type="curve" smooth="yes"/>
      <point x="-110.85333333333334" y="17.173333333333332" type="line"/>
      <point x="-151.94666666666666" y="17.173333333333332" type="line"/>
      <point x="-250.65333333333334" y="-135.90666666666667" type="line" smooth="yes"/>
      <point x="-331.92" y="-262.82666666666665"/>
      <point x="-347.04" y="-318.3066666666667"/>
      <point x="-347.04" y="-372.28" type="curve" smooth="yes"/>
      <point x="-347.04" y="-469.50666666666666"/>
      <point x="-285.94666666666666" y="-530.0"/>
      <point x="-190.2" y="-530.0" type="curve" smooth="yes"/>
      <point x="-110.6" y="-530.0"/>
      <point x="-51.38666666666667" y="-494.6533333333333"/>
      <point x="31.506666666666668" y="-393.81333333333333" type="curve"/>
      <point x="10.653333333333334" y="-371.4533333333333" type="line"/>
      <point x="-51.08" y="-433.68"/>
      <point x="-97.84" y="-457.5733333333333"/>
      <point x="-150.24" y="-457.5733333333333" type="curve" smooth="yes"/>
      <point x="-216.37333333333333" y="-457.5733333333333"/>
      <point x="-259.49333333333334" y="-417.06666666666666"/>
      <point x="-259.49333333333334" y="-347.81333333333333" type="curve" smooth="yes"/>
      <point x="-259.49333333333334" y="-290.92"/>
      <point x="-248.37333333333333" y="-244.2"/>
    </contour>
  </outline>
</glyph>
<glyph name="zerosuperior" format="2">
  <advance width="702.8533333333334"/>
  <unicode hex="2070"/>
  <outline>
    <contour>
      <point x="353.24" y="627.56" type="curve" smooth="yes"/>
      <point x="240.18666666666667" y="627.56"/>
      <point x="174.65333333333334" y="759.08"/>
      <point x="174.65333333333334" y="982.2533333333333" type="curve" smooth="yes"/>
      <point x="174.65333333333334" y="1184.1733333333334"/>
      <point x="238.18666666666667" y="1305.0666666666666"/>
      <point x="349.61333333333334" y="1305.0666666666666" type="curve" smooth="yes"/>
      <point x="462.6666666666667" y="1305.0666666666666"/>
      <point x="527.4533333333334" y="1173.5466666666666"/>
      <point x="527.4533333333334" y="950.7466666666667" type="curve" smooth="yes"/>
      <point x="527.4533333333334" y="748.4533333333334"/>
      <point x="464.29333333333335" y="627.56"/>
    </contour>
    <contour>
      <point x="351.61333333333334" y="582.6266666666667" type="curve" smooth="yes"/>
      <point x="518.6" y="582.6266666666667"/>
      <point x="630.72" y="738.0"/>
      <point x="630.72" y="967.6266666666667" type="curve" smooth="yes"/>
      <point x="630.72" y="1196.6266666666668"/>
      <point x="518.6" y="1350.0"/>
      <point x="351.61333333333334" y="1350.0" type="curve" smooth="yes"/>
      <point x="185.0" y="1350.0"/>
      <point x="72.13333333333334" y="1194.6266666666668"/>
      <point x="72.13333333333334" y="965.0" type="curve" smooth="yes"/>
      <point x="72.13333333333334" y="736.0"/>
      <point x="185.0" y="582.6266666666667"/>
    </contour>
  </outline>
</glyph>
<glyph name="f_f_i" format="2">
  <advance width="1587.9333333333334"/>
  <unicode hex="FB03"/>
  <outline>
    <contour>
      <point x="1344.0133333333333" y="783.8133333333334" type="line"/>
      <point x="1301.1733333333334" y="811.6533333333333" type="line"/>
      <point x="1301.1733333333334" y="62.44" type="line"/>
      <point x="1149.1733333333334" y="28.226666666666667" type="line"/>
      <point x="1149.1733333333334" y="0.0" type="line"/>
      <point x="1552.6666666666667" y="0.0" type="line"/>
      <point x="1552.6666666666667" y="28.226666666666667" type="line"/>
      <point x="1399.5466666666666" y="62.44" type="line"/>
      <point x="1399.5466666666666" y="751.9866666666667" type="line"/>
      <point x="1408.0533333333333" y="872.0" type="line"/>
      <point x="1396.32" y="872.0" type="line"/>
      <point x="1253.7866666666666" y="852.0" type="line"/>
      <point x="249.24" y="852.0" type="line"/>
      <point x="228.01333333333332" y="856.3866666666667" type="line"/>
      <point x="31.48" y="812.9333333333333" type="line"/>
      <point x="31.48" y="788.8266666666667" type="line"/>
      <point x="214.64" y="769.84" type="line"/>
      <point x="256.7733333333333" y="783.8133333333334" type="line"/>
    </contour>
    <contour>
      <point x="483.38666666666666" y="0.0" type="line"/>
      <point x="483.38666666666666" y="28.226666666666667" type="line"/>
      <point x="311.76" y="62.44" type="line"/>
      <point x="311.76" y="959.8133333333333" type="line" smooth="yes"/>
      <point x="311.76" y="1223.6933333333334"/>
      <point x="449.29333333333335" y="1340.9466666666667"/>
      <point x="625.3066666666666" y="1340.9466666666667" type="curve" smooth="yes"/>
      <point x="721.8266666666667" y="1340.9466666666667"/>
      <point x="795.4533333333334" y="1304.5733333333333"/>
      <point x="865.0533333333333" y="1219.9866666666667" type="curve"/>
      <point x="938.3466666666667" y="1306.0" type="line"/>
      <point x="876.8933333333333" y="1361.1066666666666"/>
      <point x="792.28" y="1399.0"/>
      <point x="673.76" y="1399.0" type="curve" smooth="yes"/>
      <point x="458.58666666666664" y="1399.0"/>
      <point x="213.38666666666666" y="1255.92"/>
      <point x="213.38666666666666" y="898.6533333333333" type="curve" smooth="yes"/>
      <point x="213.38666666666666" y="62.44" type="line"/>
      <point x="61.38666666666667" y="28.226666666666667" type="line"/>
      <point x="61.38666666666667" y="0.0" type="line"/>
    </contour>
    <contour>
      <point x="855.6533333333333" y="62.44" type="line"/>
      <point x="855.6533333333333" y="976.08" type="line" smooth="yes"/>
      <point x="855.6533333333333" y="1243.5066666666667"/>
      <point x="976.4" y="1346.44"/>
      <point x="1124.7066666666667" y="1346.44" type="curve" smooth="yes"/>
      <point x="1231.7066666666667" y="1346.44"/>
      <point x="1252.6" y="1251.9333333333334"/>
      <point x="1330.8133333333333" y="1251.9333333333334" type="curve" smooth="yes"/>
      <point x="1379.68" y="1251.9333333333334"/>
      <point x="1412.28" y="1285.1733333333334"/>
      <point x="1412.28" y="1330.4" type="curve" smooth="yes"/>
      <point x="1412.28" y="1374.2533333333333"/>
      <point x="1374.44" y="1419.0"/>
      <point x="1238.3066666666666" y="1419.0" type="curve" smooth="yes"/>
      <point x="1010.6133333333333" y="1419.0"/>
      <point x="757.28" y="1290.68"/>
      <point x="757.28" y="911.56" type="curve" smooth="yes"/>
      <point x="757.28" y="62.44" type="line"/>
      <point x="605.28" y="28.226666666666667" type="line"/>
      <point x="605.28" y="0.0" type="line"/>
      <point x="1027.28" y="0.0" type="line"/>
      <point x="1027.28" y="28.226666666666667" type="line"/>
    </contour>
  </outline>
</glyph>
<glyph name="colonmonetary.lf.1" format="2">
  <advance width="1063.2533333333333"/>
  <outline>
    <contour>
      <point x="614.8533333333334" y="1303.6933333333334" type="curve" smooth="yes"/>
      <point x="803.52" y="1303.6933333333334"/>
      <point x="810.8" y="1148.44"/>
      <point x="903.0" y="1148.44" type="curve" smooth="yes"/>
      <point x="945.36" y="1148.44"/>
      <point x="972.08" y="1180.9333333333334"/>
      <point x="972.08" y="1217.5333333333333" type="curve" smooth="yes"/>
      <point x="972.08" y="1288.52"/>
      <point x="872.8" y="1360.0"/>
      <point x="659.56" y="1360.0" type="curve" smooth="yes"/>
      <point x="301.73333333333335" y="1360.0"/>
      <point x="112.13333333333334" y="1039.04"/>
      <point x="112.13333333333334" y="623.3466666666667" type="curve" smooth="yes"/>
      <point x="112.13333333333334" y="216.51999999999998"/>
      <point x="311.6666666666667" y="-19.373333333333335"/>
      <point x="571.7333333333333" y="-19.373333333333335" type="curve" smooth="yes"/>
      <point x="722.88" y="-19.373333333333335"/>
      <point x="828.4933333333333" y="28.226666666666667"/>
      <point x="978.52" y="158.17333333333335" type="curve"/>
      <point x="959.04" y="184.65333333333334" type="line"/>
      <point x="827.44" y="92.62666666666667"/>
      <point x="734.7332975871313" y="70.26666666666667"/>
      <point x="622.52" y="70.26666666666667" type="curve" smooth="yes"/>
      <point x="383.560126984127" y="70.26666666666667"/>
      <point x="208.65333333333334" y="295.72"/>
      <point x="208.65333333333334" y="683.08" type="curve" smooth="yes"/>
      <point x="208.65333333333334" y="1075.92"/>
      <point x="372.76" y="1303.6933333333334"/>
    </contour>
    <contour>
      <point x="603.5333333333333" y="1323.0533333333333" type="line"/>
      <point x="650.1466666666666" y="1535.0" type="line"/>
      <point x="589.8133333333333" y="1535.0" type="line"/>
      <point x="543.2" y="1323.0533333333333" type="line"/>
    </contour>
    <contour>
      <point x="319.56" y="135.48" type="line"/>
      <point x="245.81333333333333" y="-195.0" type="line"/>
      <point x="306.14666666666665" y="-195.0" type="line"/>
      <point x="379.8933333333333" y="135.48" type="line"/>
    </contour>
    <contour>
      <point x="819.48" y="1302.3733333333332" type="line"/>
      <point x="871.1066666666667" y="1535.0" type="line"/>
      <point x="810.7733333333333" y="1535.0" type="line"/>
      <point x="759.1466666666666" y="1302.3733333333332" type="line"/>
    </contour>
    <contour>
      <point x="517.2533333333333" y="31.78666666666666" type="line"/>
      <point x="466.7733333333333" y="-195.0" type="line"/>
      <point x="527.7333333333333" y="-195.0" type="line"/>
      <point x="578.2133333333334" y="31.78666666666666" type="line"/>
    </contour>
  </outline>
</glyph>
<glyph name="colonmonetary.lf" format="2">
  <advance width="1058.12"/>
  <outline>
    <contour>
      <point x="218.6" y="-195.0" type="line"/>
      <point x="279.68" y="-195.0" type="line"/>
      <point x="663.68" y="1535.0" type="line"/>
      <point x="602.6" y="1535.0" type="line"/>
    </contour>
    <contour>
      <point x="451.50666666666666" y="-195.0" type="line"/>
      <point x="513.2133333333334" y="-195.0" type="line"/>
      <point x="896.5866666666667" y="1535.0" type="line"/>
      <point x="835.5066666666667" y="1535.0" type="line"/>
    </contour>
    <contour>
      <point x="615.8533333333334" y="1303.6933333333334" type="curve" smooth="yes"/>
      <point x="804.52" y="1303.6933333333334"/>
      <point x="811.8" y="1148.44"/>
      <point x="904.0" y="1148.44" type="curve" smooth="yes"/>
      <point x="946.36" y="1148.44"/>
      <point x="973.08" y="1180.9333333333334"/>
      <point x="973.08" y="1217.5333333333333" type="curve" smooth="yes"/>
      <point x="973.08" y="1288.52"/>
      <point x="873.8" y="1360.0"/>
      <point x="660.56" y="1360.0" type="curve" smooth="yes"/>
      <point x="302.73333333333335" y="1360.0"/>
      <point x="113.13333333333334" y="1039.04"/>
      <point x="113.13333333333334" y="623.3466666666667" type="curve" smooth="yes"/>
      <point x="113.13333333333334" y="216.51999999999998"/>
      <point x="312.6666666666667" y="-19.373333333333335"/>
      <point x="572.7333333333333" y="-19.373333333333335" type="curve" smooth="yes"/>
      <point x="723.88" y="-19.373333333333335"/>
      <point x="829.4933333333333" y="28.226666666666667"/>
      <point x="979.52" y="158.17333333333335" type="curve"/>
      <point x="960.04" y="184.65333333333334" type="line"/>
      <point x="828.44" y="92.62666666666667"/>
      <point x="735.7332975871313" y="70.26666666666667"/>
      <point x="623.52" y="70.26666666666667" type="curve" smooth="yes"/>
      <point x="384.560126984127" y="70.26666666666667"/>
      <point x="209.65333333333334" y="295.72"/>
      <point x="209.65333333333334" y="683.08" type="curve" smooth="yes"/>
      <point x="209.65333333333334" y="1075.92"/>
      <point x="373.76" y="1303.6933333333334"/>
    </contour>
  </outline>
</glyph>
<glyph name="dollar.lf.1" format="2">
  <advance width="981.6666666666666"/>
  <outline>
    <contour>
      <point x="436.56" y="-20.0" type="curve" smooth="yes"/>
      <point x="699.4266666666666" y="-20.0"/>
      <point x="897.6933333333334" y="125.76"/>
      <point x="897.6933333333334" y="375.61333333333334" type="curve" smooth="yes"/>
      <point x="897.6933333333334" y="569.52"/>
      <point x="808.32" y="675.36"/>
      <point x="529.8" y="755.9866666666667" type="curve" smooth="yes"/>
      <point x="251.28" y="835.9866666666667"/>
      <point x="199.89333333333332" y="918.9733333333334"/>
      <point x="199.89333333333332" y="1051.1466666666668" type="curve" smooth="yes"/>
      <point x="199.89333333333332" y="1196.52"/>
      <point x="317.38666666666666" y="1304.9466666666667"/>
      <point x="515.3066666666666" y="1304.9466666666667" type="curve" smooth="yes"/>
      <point x="711.7866666666666" y="1304.9466666666667"/>
      <point x="724.1066666666667" y="1141.0933333333332"/>
      <point x="811.2933333333333" y="1141.0933333333332" type="curve" smooth="yes"/>
      <point x="853.9066666666666" y="1141.0933333333332"/>
      <point x="880.7466666666667" y="1173.3333333333333"/>
      <point x="880.7466666666667" y="1206.6666666666667" type="curve" smooth="yes"/>
      <point x="880.7466666666667" y="1275.3866666666668"/>
      <point x="778.52" y="1360.0"/>
      <point x="539.04" y="1360.0" type="curve" smooth="yes"/>
      <point x="280.4266666666667" y="1360.0"/>
      <point x="114.61333333333333" y="1221.2266666666667"/>
      <point x="114.61333333333333" y="1023.9333333333333" type="curve" smooth="yes"/>
      <point x="114.61333333333333" y="846.8"/>
      <point x="199.49333333333334" y="744.3333333333334"/>
      <point x="469.4266666666667" y="666.96" type="curve" smooth="yes"/>
      <point x="738.7333333333333" y="589.5866666666667"/>
      <point x="808.0533333333333" y="499.17333333333335"/>
      <point x="808.0533333333333" y="345.4266666666667" type="curve" smooth="yes"/>
      <point x="808.0533333333333" y="131.85333333333332"/>
      <point x="643.24" y="31.546666666666663"/>
      <point x="448.17333333333335" y="31.546666666666663" type="curve" smooth="yes"/>
      <point x="246.93333333333334" y="31.546666666666663"/>
      <point x="220.88" y="192.50666666666666"/>
      <point x="136.07999999999998" y="192.50666666666666" type="curve" smooth="yes"/>
      <point x="93.6" y="192.50666666666666"/>
      <point x="66.0" y="160.4"/>
      <point x="66.0" y="122.30666666666667" type="curve" smooth="yes"/>
      <point x="66.0" y="47.21333333333333"/>
      <point x="172.51999999999998" y="-20.0"/>
    </contour>
    <contour>
      <point x="428.52" y="1316.4" type="line"/>
      <point x="428.52" y="1535.0" type="line"/>
      <point x="369.56" y="1535.0" type="line"/>
      <point x="369.56" y="1316.4" type="line"/>
    </contour>
    <contour>
      <point x="642.12" y="1318.9066666666668" type="line"/>
      <point x="642.12" y="1535.0" type="line"/>
      <point x="583.16" y="1535.0" type="line"/>
      <point x="583.16" y="1318.9066666666668" type="line"/>
    </contour>
    <contour>
      <point x="369.56" y="8.586666666666666" type="line"/>
      <point x="369.56" y="-195.0" type="line"/>
      <point x="428.52" y="-195.0" type="line"/>
      <point x="428.52" y="8.586666666666666" type="line"/>
    </contour>
    <contour>
      <point x="583.16" y="25.506666666666668" type="line"/>
      <point x="583.16" y="-195.0" type="line"/>
      <point x="642.12" y="-195.0" type="line"/>
      <point x="642.12" y="25.506666666666668" type="line"/>
    </contour>
  </outline>
</glyph>
<glyph name="dong.lf" format="2">
  <advance width="1132.48"/>
  <outline>
    <contour>
      <point x="1034.72" y="-257.4" type="line"/>
      <point x="123.04" y="-257.4" type="line"/>
      <point x="123.04" y="-317.85333333333335" type="line"/>
      <point x="1034.72" y="-317.85333333333335" type="line"/>
    </contour>
    <contour>
      <point x="764.1866666666667" y="644.9466666666667" type="curve" smooth="yes"/>
      <point x="764.1866666666667" y="124.36" type="line"/>
      <point x="769.4133333333333" y="-18.506666666666668" type="line"/>
      <point x="782.1466666666666" y="-18.506666666666668" type="line"/>
      <point x="1019.92" y="46.0" type="line"/>
      <point x="1019.92" y="68.10666666666667" type="line"/>
      <point x="979.92" y="73.51443223443223"/>
      <point x="883.32" y="93.0185347985348"/>
      <point x="860.32" y="104.17333333333333" type="curve"/>
      <point x="860.32" y="1277.0666666666666" type="line"/>
      <point x="869.9466666666667" y="1396.9733333333334" type="line"/>
      <point x="858.2133333333334" y="1396.9733333333334" type="line"/>
      <point x="612.9866666666667" y="1341.1466666666668" type="line"/>
      <point x="612.9866666666667" y="1326.0266666666666" type="line"/>
      <point x="667.9866666666667" y="1306.8087301587302"/>
      <point x="741.1866666666667" y="1281.4363492063492"/>
      <point x="764.1866666666667" y="1266.6933333333334" type="curve"/>
      <point x="764.1866666666667" y="726.4266666666666" type="line"/>
      <point x="830.1466666666666" y="792.08" type="line"/>
      <point x="724.0266666666666" y="842.2"/>
      <point x="649.5466666666666" y="858.1866666666667"/>
      <point x="553.16" y="858.1866666666667" type="curve" smooth="yes"/>
      <point x="300.0" y="858.1866666666667"/>
      <point x="91.25333333333333" y="685.32"/>
      <point x="91.25333333333333" y="384.4266666666667" type="curve" smooth="yes"/>
      <point x="91.25333333333333" y="132.98666666666668"/>
      <point x="223.64" y="-20.0"/>
      <point x="472.16" y="-20.0" type="curve" smooth="yes"/>
      <point x="557.8933333333333" y="-20.0"/>
      <point x="608.4933333333333" y="1.0"/>
      <point x="818.44" y="126.41333333333333" type="curve"/>
      <point x="818.44" y="176.24" type="line"/>
      <point x="708.6266666666667" y="92.06666666666666"/>
      <point x="606.72" y="58.306666666666665"/>
      <point x="506.58666666666664" y="58.306666666666665" type="curve" smooth="yes"/>
      <point x="319.64" y="58.306666666666665"/>
      <point x="197.48" y="187.21333333333334"/>
      <point x="197.48" y="409.49333333333334" type="curve" smooth="yes"/>
      <point x="197.48" y="650.2"/>
      <point x="312.5333333333333" y="801.12"/>
      <point x="530.9066666666666" y="801.12" type="curve" smooth="yes"/>
      <point x="667.1333333333333" y="801.12"/>
      <point x="764.1866666666667" y="729.64"/>
    </contour>
    <contour>
      <point x="469.3333333333333" y="1030.3466666666666" type="line"/>
      <point x="1035.9733333333334" y="1030.3466666666666" type="line"/>
      <point x="1035.9733333333334" y="1092.68" type="line"/>
      <point x="469.3333333333333" y="1092.68" type="line"/>
    </contour>
  </outline>
</glyph>
<glyph name="florin.lf" format="2">
  <advance width="1415.8266666666666"/>
  <outline>
    <contour>
      <point x="381.96" y="645.9066666666666" type="line"/>
      <point x="1087.04" y="645.9066666666666" type="line"/>
      <point x="1087.04" y="706.36" type="line"/>
      <point x="381.96" y="706.36" type="line"/>
    </contour>
    <contour>
      <point x="243.16" y="-270.0" type="curve" smooth="yes"/>
      <point x="437.58666666666664" y="-270.0"/>
      <point x="641.9846825094306" y="-145.0439859562739"/>
      <point x="716.08" y="311.37333333333333" type="curve" smooth="yes"/>
      <point x="815.4133333333333" y="917.6933333333334" type="line" smooth="yes"/>
      <point x="864.2933333333333" y="1218.6933333333334"/>
      <point x="969.4133333333333" y="1297.1066666666666"/>
      <point x="1103.16" y="1297.1066666666666" type="curve" smooth="yes"/>
      <point x="1212.12" y="1297.1066666666666"/>
      <point x="1237.3466666666666" y="1188.8533333333332"/>
      <point x="1302.12" y="1188.8533333333332" type="curve" smooth="yes"/>
      <point x="1341.72" y="1188.8533333333332"/>
      <point x="1370.2" y="1215.84"/>
      <point x="1370.2" y="1252.56" type="curve" smooth="yes"/>
      <point x="1370.2" y="1303.52"/>
      <point x="1314.48" y="1356.64"/>
      <point x="1169.0533333333333" y="1356.64" type="curve" smooth="yes"/>
      <point x="974.2533333333333" y="1356.64"/>
      <point x="762.76" y="1244.8533333333332"/>
      <point x="696.5066666666667" y="836.4933333333333" type="curve" smooth="yes"/>
      <point x="595.3066666666666" y="220.09333333333333" type="line" smooth="yes"/>
      <point x="539.2743968020725" y="-126.2005172178207"/>
      <point x="424.1333333333333" y="-210.84"/>
      <point x="302.3333333333333" y="-210.84" type="curve" smooth="yes"/>
      <point x="198.6" y="-210.84"/>
      <point x="174.71954022988504" y="-105.94666666666667"/>
      <point x="112.33333333333333" y="-105.94666666666667" type="curve" smooth="yes"/>
      <point x="73.48" y="-105.94666666666667"/>
      <point x="45.74666666666667" y="-132.18666666666667"/>
      <point x="45.74666666666667" y="-168.16" type="curve" smooth="yes"/>
      <point x="45.74666666666667" y="-218.0"/>
      <point x="99.97333333333333" y="-270.0"/>
    </contour>
  </outline>
</glyph>
<glyph name="hookabovecomb.case" format="2">
  <anchor x="0.0" y="1340.0" name="_UCtop"/>
  <anchor x="0.0" y="1716.0" name="UCtop"/>
  <outline>
    <contour>
      <point x="-137.22666666666666" y="1668.7733333333333" type="line"/>
      <point x="43.57333333333334" y="1663.5466666666666"/>
      <point x="88.48" y="1638.8"/>
      <point x="88.48" y="1594.16" type="curve" smooth="yes"/>
      <point x="88.48" y="1549.9066666666668"/>
      <point x="51.2" y="1525.7733333333333"/>
      <point x="-54.18666666666667" y="1500.6266666666668" type="curve"/>
      <point x="-40.42666666666666" y="1459.92" type="line"/>
      <point x="129.73333333333332" y="1498.0666666666666"/>
      <point x="164.24" y="1547.52"/>
      <point x="164.24" y="1615.1066666666666" type="curve" smooth="yes"/>
      <point x="164.24" y="1692.2133333333334"/>
      <point x="105.13333333333334" y="1747.8"/>
      <point x="-121.62666666666667" y="1757.4" type="curve"/>
    </contour>
  </outline>
</glyph>
<glyph name="seven.lf" format="2">
  <advance width="918.8133333333333"/>
  <outline>
    <contour>
      <point x="131.46666666666667" y="1237.8666666666666" type="line"/>
      <point x="846.2666666666667" y="1237.8666666666666" type="line"/>
      <point x="840.7866666666666" y="1277.6533333333334" type="line"/>
      <point x="310.58666666666664" y="0.0" type="line"/>
      <point x="439.3333333333333" y="0.0" type="line"/>
      <point x="909.68" y="1324.76" type="line"/>
      <point x="909.68" y="1340.0" type="line"/>
      <point x="171.93333333333334" y="1340.0" type="line"/>
      <point x="79.88" y="1359.0" type="line"/>
      <point x="67.64" y="1359.0" type="line"/>
      <point x="46.24" y="1005.5333333333333" type="line"/>
      <point x="71.21333333333334" y="1005.5333333333333" type="line"/>
      <point x="178.48" y="1269.88" type="line"/>
    </contour>
  </outline>
</glyph>
<glyph name="six.lf" format="2">
  <advance width="1023.3333333333334"/>
  <outline>
    <contour>
      <point x="833.1066666666667" y="1387.0" type="line"/>
      <point x="274.25333333333333" y="1197.7466666666667"/>
      <point x="97.13333333333334" y="897.0"/>
      <point x="97.13333333333334" y="523.0" type="curve" smooth="yes"/>
      <point x="97.13333333333334" y="225.0"/>
      <point x="253.24" y="-20.0"/>
      <point x="535.36" y="-20.0" type="curve" smooth="yes"/>
      <point x="782.7066666666667" y="-20.0"/>
      <point x="951.7066666666667" y="167.74666666666667"/>
      <point x="951.7066666666667" y="413.74666666666667" type="curve" smooth="yes"/>
      <point x="951.7066666666667" y="631.4533333333334"/>
      <point x="822.0133333333333" y="772.0"/>
      <point x="593.3066666666666" y="772.0" type="curve" smooth="yes"/>
      <point x="471.72" y="772.0"/>
      <point x="396.84000000000003" y="743.56"/>
      <point x="163.10666666666665" y="567.8133333333334" type="curve"/>
      <point x="193.92" y="545.3066666666666" type="line"/>
      <point x="321.0133333333333" y="645.3466666666667"/>
      <point x="457.6533333333333" y="689.9466666666667"/>
      <point x="555.84" y="689.9466666666667" type="curve" smooth="yes"/>
      <point x="750.0266666666666" y="689.9466666666667"/>
      <point x="852.9466666666667" y="570.5466666666666"/>
      <point x="852.9466666666667" y="365.62666666666667" type="curve" smooth="yes"/>
      <point x="852.9466666666667" y="160.46666666666667"/>
      <point x="723.4933333333333" y="32.93333333333333"/>
      <point x="536.72" y="32.93333333333333" type="curve" smooth="yes"/>
      <point x="331.3466666666667" y="32.93333333333333"/>
      <point x="206.38666666666666" y="227.25071038251366"/>
      <point x="206.38666666666666" y="535.1066666666667" type="curve" smooth="yes"/>
      <point x="206.38666666666666" y="963.3866666666667"/>
      <point x="411.28" y="1193.6266666666668"/>
      <point x="858.9466666666667" y="1350.2933333333333" type="curve"/>
    </contour>
  </outline>
</glyph>
<glyph name="three.lf" format="2">
  <advance width="964.8133333333333"/>
  <outline>
    <contour>
      <point x="289.0" y="651.1466666666666" type="line"/>
      <point x="371.50666666666666" y="677.9066666666666" type="line" smooth="yes"/>
      <point x="614.8133333333334" y="756.9466666666667"/>
      <point x="765.56" y="631.1333333333333"/>
      <point x="765.56" y="428.81333333333333" type="curve" smooth="yes"/>
      <point x="765.56" y="200.56"/>
      <point x="608.56" y="49.72"/>
      <point x="406.41333333333336" y="49.72" type="curve" smooth="yes"/>
      <point x="265.29333333333335" y="49.72"/>
      <point x="222.58666666666667" y="144.90666666666667"/>
      <point x="148.22666666666666" y="144.90666666666667" type="curve" smooth="yes"/>
      <point x="102.49333333333334" y="144.90666666666667"/>
      <point x="75.14666666666666" y="118.17333333333333"/>
      <point x="75.14666666666666" y="78.94666666666666" type="curve" smooth="yes"/>
      <point x="75.14666666666666" y="25.85333333333333"/>
      <point x="128.48" y="-20.0"/>
      <point x="276.44" y="-20.0" type="curve" smooth="yes"/>
      <point x="630.4666666666667" y="-20.0"/>
      <point x="873.68" y="181.38666666666666"/>
      <point x="873.68" y="456.06666666666666" type="curve" smooth="yes"/>
      <point x="873.68" y="655.88"/>
      <point x="738.0933333333334" y="788.0133333333333"/>
      <point x="490.6" y="752.7466666666667" type="curve"/>
      <point x="493.2266666666667" y="747.0" type="line"/>
      <point x="672.2" y="832.5066666666667"/>
      <point x="770.8133333333333" y="946.7466666666667"/>
      <point x="770.8133333333333" y="1090.2533333333333" type="curve" smooth="yes"/>
      <point x="770.8133333333333" y="1251.88"/>
      <point x="663.4533333333334" y="1360.0"/>
      <point x="470.58666666666664" y="1360.0" type="curve" smooth="yes"/>
      <point x="271.2266666666667" y="1360.0"/>
      <point x="140.9416984449331" y="1238.717380365992"/>
      <point x="97.36" y="1011.8133333333334" type="curve"/>
      <point x="136.32" y="1005.44" type="line"/>
      <point x="183.0677907544117" y="1205.4649643351624"/>
      <point x="292.48" y="1279.72"/>
      <point x="442.37333333333333" y="1279.72" type="curve" smooth="yes"/>
      <point x="589.4133333333333" y="1279.72"/>
      <point x="665.1733333333333" y="1181.2"/>
      <point x="665.1733333333333" y="1056.1733333333334" type="curve" smooth="yes"/>
      <point x="665.1733333333333" y="909.2666666666667"/>
      <point x="577.2933333333333" y="803.52"/>
      <point x="273.8933333333333" y="694.3466666666667" type="curve"/>
    </contour>
  </outline>
</glyph>
<glyph name="uni0302_hookabovecomb" format="2">
  <anchor x="0.0" y="852.0" name="_top"/>
  <outline>
    <contour>
      <point x="19.893333333333334" y="1257.24" type="line"/>
      <point x="-19.266666666666666" y="1257.24" type="line"/>
      <point x="210.37333333333333" y="1009.0" type="line"/>
      <point x="261.58666666666664" y="1009.0" type="line"/>
      <point x="45.906666666666666" y="1340.0" type="line"/>
      <point x="-46.53333333333333" y="1340.0" type="line"/>
      <point x="-261.58666666666664" y="1009.0" type="line"/>
      <point x="-210.37333333333333" y="1009.0" type="line"/>
    </contour>
    <contour>
      <point x="204.18666666666667" y="1248.96" type="curve"/>
      <point x="220.44" y="1208.0" type="line"/>
      <point x="380.8" y="1263.0133333333333"/>
      <point x="436.85333333333335" y="1332.24"/>
      <point x="436.85333333333335" y="1418.0" type="curve" smooth="yes"/>
      <point x="436.85333333333335" y="1513.76"/>
      <point x="376.08" y="1581.52"/>
      <point x="160.78666666666666" y="1601.0" type="curve"/>
      <point x="138.56" y="1503.2266666666667" type="line"/>
      <point x="320.68" y="1490.48"/>
      <point x="353.58666666666664" y="1449.2133333333334"/>
      <point x="353.58666666666664" y="1391.3066666666666" type="curve" smooth="yes"/>
      <point x="353.58666666666664" y="1337.1466666666668"/>
      <point x="316.68" y="1292.2533333333333"/>
    </contour>
  </outline>
</glyph>
<glyph name="uni0306.case" format="2">
  <anchor x="0.0" y="1340.0" name="_UCtop"/>
  <anchor x="0.0" y="1716.0" name="UCtop"/>
  <outline>
    <contour>
      <point x="0.0" y="1552.8933333333334" type="curve" smooth="yes"/>
      <point x="-111.02666666666667" y="1552.8933333333334"/>
      <point x="-173.40383898630617" y="1601.53846679125"/>
      <point x="-204.88" y="1716.0" type="curve"/>
      <point x="-251.45333333333332" y="1716.0" type="line"/>
      <point x="-200.4575494359342" y="1520.5517237816441"/>
      <point x="-139.68447688564476" y="1469.0"/>
      <point x="0.0" y="1469.0" type="curve" smooth="yes"/>
      <point x="139.68447688564476" y="1469.0"/>
      <point x="200.4575494359342" y="1520.5517237816441"/>
      <point x="251.45333333333332" y="1716.0" type="curve"/>
      <point x="204.88" y="1716.0" type="line"/>
      <point x="173.40383898630617" y="1601.53846679125"/>
      <point x="111.4" y="1552.8933333333334"/>
    </contour>
  </outline>
</glyph>
<glyph name="uni0306_tildecomb" format="2">
  <anchor x="0.0" y="852.0" name="_top"/>
  <outline>
    <contour>
      <point x="-192.37333333333333" y="1275.0" type="line"/>
      <point x="-169.22666666666666" y="1362.9733333333334"/>
      <point x="-148.6" y="1385.36"/>
      <point x="-114.22666666666666" y="1385.36" type="curve" smooth="yes"/>
      <point x="-57.22666666666667" y="1385.36"/>
      <point x="33.61333333333333" y="1269.0"/>
      <point x="106.46666666666667" y="1269.0" type="curve" smooth="yes"/>
      <point x="166.16" y="1269.0"/>
      <point x="195.30666666666667" y="1310.2"/>
      <point x="233.57333333333332" y="1476.0" type="curve"/>
      <point x="191.74666666666667" y="1476.0" type="line"/>
      <point x="168.6" y="1387.4"/>
      <point x="147.97333333333333" y="1365.0133333333333"/>
      <point x="114.22666666666666" y="1365.0133333333333" type="curve" smooth="yes"/>
      <point x="57.22666666666667" y="1365.0133333333333"/>
      <point x="-33.61333333333333" y="1482.3733333333332"/>
      <point x="-106.46666666666667" y="1482.3733333333332" type="curve" smooth="yes"/>
      <point x="-166.16" y="1482.3733333333332"/>
      <point x="-195.30666666666667" y="1440.8"/>
      <point x="-233.57333333333332" y="1275.0" type="curve"/>
    </contour>
    <contour>
      <point x="0.0" y="1050.9066666666668" type="curve" smooth="yes"/>
      <point x="-104.62666666666667" y="1050.9066666666668"/>
      <point x="-163.24" y="1087.9333333333334"/>
      <point x="-194.0" y="1206.0" type="curve"/>
      <point x="-236.45333333333332" y="1206.0" type="line"/>
      <point x="-187.32" y="999.6266666666667"/>
      <point x="-126.70666666666666" y="957.0"/>
      <point x="0.0" y="957.0" type="curve" smooth="yes"/>
      <point x="126.70666666666666" y="957.0"/>
      <point x="187.32" y="999.6266666666667"/>
      <point x="236.45333333333332" y="1206.0" type="curve"/>
      <point x="194.0" y="1206.0" type="line"/>
      <point x="163.24" y="1088.68"/>
      <point x="104.62666666666667" y="1050.9066666666668"/>
    </contour>
  </outline>
</glyph>
<glyph name="uni0307.case" format="2">
  <anchor x="0.0" y="1340.0" name="_UCtop"/>
  <anchor x="0.0" y="1596.0" name="_mid"/>
  <anchor x="0.0" y="1677.0" name="UCtop"/>
  <outline>
    <contour>
      <point x="0.0" y="1502.1866666666667" type="curve" smooth="yes"/>
      <point x="56.84" y="1502.1866666666667"/>
      <point x="93.56" y="1545.6666666666667"/>
      <point x="93.56" y="1596.0" type="curve" smooth="yes"/>
      <point x="93.56" y="1646.96"/>
      <point x="56.84" y="1690.44"/>
      <point x="0.0" y="1690.44" type="curve" smooth="yes"/>
      <point x="-56.84" y="1690.44"/>
      <point x="-93.56" y="1646.96"/>
      <point x="-93.56" y="1596.0" type="curve" smooth="yes"/>
      <point x="-93.56" y="1545.6666666666667"/>
      <point x="-56.84" y="1502.1866666666667"/>
    </contour>
  </outline>
</glyph>
<glyph name="uni20A6.lf" format="2">
  <advance width="1295.7066666666667"/>
  <outline>
    <contour>
      <point x="1202.96" y="591.84" type="line"/>
      <point x="109.86666666666666" y="591.84" type="line"/>
      <point x="109.86666666666666" y="531.3866666666667" type="line"/>
      <point x="1202.96" y="531.3866666666667" type="line"/>
    </contour>
    <contour>
      <point x="1202.96" y="868.76" type="line"/>
      <point x="109.86666666666666" y="868.76" type="line"/>
      <point x="109.86666666666666" y="808.3066666666666" type="line"/>
      <point x="1202.96" y="808.3066666666666" type="line"/>
    </contour>
    <contour>
      <point x="985.0666666666667" y="160.85333333333332" type="line"/>
      <point x="412.15999999999997" y="1340.0" type="line"/>
      <point x="123.26666666666667" y="1340.0" type="line"/>
      <point x="123.26666666666667" y="1312.4" type="line"/>
      <point x="300.68" y="1264.5733333333333" type="line"/>
      <point x="300.68" y="64.32" type="line"/>
      <point x="133.90666666666667" y="27.6" type="line"/>
      <point x="133.90666666666667" y="0.0" type="line"/>
      <point x="529.7466666666667" y="0.0" type="line"/>
      <point x="529.7466666666667" y="27.6" type="line"/>
      <point x="358.12" y="64.32" type="line"/>
      <point x="358.12" y="1273.8666666666666" type="line"/>
      <point x="328.61333333333334" y="1279.2266666666667" type="line"/>
      <point x="965.0" y="-19.0" type="line"/>
      <point x="1020.2933333333333" y="-19.0" type="line"/>
      <point x="1020.2933333333333" y="1274.9333333333334" type="line"/>
      <point x="1187.0666666666666" y="1312.4" type="line"/>
      <point x="1187.0666666666666" y="1340.0" type="line"/>
      <point x="791.2266666666667" y="1340.0" type="line"/>
      <point x="791.2266666666667" y="1312.4" type="line"/>
      <point x="962.8533333333334" y="1274.9333333333334" type="line"/>
      <point x="962.8533333333334" y="83.67999999999999" type="line"/>
    </contour>
  </outline>
</glyph>
<glyph name="uni20B1.lf.1" format="2">
  <advance width="1283.4133333333334"/>
  <outline>
    <contour>
      <point x="316.16" y="1276.3066666666666" type="line"/>
      <point x="316.16" y="63.69333333333333" type="line"/>
      <point x="141.88" y="27.6" type="line"/>
      <point x="141.88" y="0.0" type="line"/>
      <point x="592.8133333333333" y="0.0" type="line"/>
      <point x="592.8133333333333" y="27.6" type="line"/>
      <point x="419.28" y="63.69333333333333" type="line"/>
      <point x="419.28" y="1340.0" type="line"/>
      <point x="141.88" y="1340.0" type="line"/>
      <point x="141.88" y="1312.4" type="line"/>
    </contour>
    <contour>
      <point x="377.85333333333335" y="1340.0" type="line"/>
      <point x="369.9866666666667" y="1280.5733333333333" type="line"/>
      <point x="523.9066666666666" y="1280.5733333333333" type="line" smooth="yes"/>
      <point x="819.7466666666667" y="1280.5733333333333"/>
      <point x="910.4" y="1152.28"/>
      <point x="910.4" y="934.3866666666667" type="curve" smooth="yes"/>
      <point x="910.4" y="713.9210355987055"/>
      <point x="811.9066666666666" y="587.2"/>
      <point x="559.0" y="587.2" type="curve" smooth="yes"/>
      <point x="369.9866666666667" y="587.2" type="line"/>
      <point x="372.2133333333333" y="527.7733333333333" type="line"/>
      <point x="582.4666666666667" y="527.7733333333333" type="line" smooth="yes"/>
      <point x="897.64" y="527.7733333333333"/>
      <point x="1016.1466666666666" y="710.7466666666667"/>
      <point x="1016.1466666666666" y="939.24" type="curve" smooth="yes"/>
      <point x="1016.1466666666666" y="1164.4933333333333"/>
      <point x="898.88" y="1340.0"/>
      <point x="582.4666666666667" y="1340.0" type="curve" smooth="yes"/>
    </contour>
    <contour>
      <point x="369.0933333333333" y="1098.0" type="line"/>
      <point x="113.0" y="1098.0" type="line"/>
      <point x="113.0" y="1037.5466666666666" type="line"/>
      <point x="369.0933333333333" y="1037.5466666666666" type="line"/>
    </contour>
    <contour>
      <point x="369.0933333333333" y="821.08" type="line"/>
      <point x="113.0" y="821.08" type="line"/>
      <point x="113.0" y="760.6266666666667" type="line"/>
      <point x="369.0933333333333" y="760.6266666666667" type="line"/>
    </contour>
    <contour>
      <point x="953.5733333333334" y="1037.5466666666666" type="line"/>
      <point x="1188.9066666666668" y="1037.5466666666666" type="line"/>
      <point x="1188.9066666666668" y="1098.0" type="line"/>
      <point x="953.5733333333334" y="1098.0" type="line"/>
    </contour>
    <contour>
      <point x="947.3066666666666" y="760.6266666666667" type="line"/>
      <point x="1188.9066666666668" y="760.6266666666667" type="line"/>
      <point x="1188.9066666666668" y="821.08" type="line"/>
      <point x="947.3066666666666" y="821.08" type="line"/>
    </contour>
  </outline>
</glyph>
<glyph name="uni20B2.lf" format="2">
  <advance width="1138.1866666666667"/>
  <outline>
    <contour>
      <point x="566.12" y="-195.0" type="line"/>
      <point x="625.08" y="-195.0" type="line"/>
      <point x="625.08" y="1535.0" type="line"/>
      <point x="566.12" y="1535.0" type="line"/>
    </contour>
    <contour>
      <point x="624.0" y="1304.8133333333333" type="curve" smooth="yes"/>
      <point x="814.72" y="1304.8133333333333"/>
      <point x="814.16" y="1141.72"/>
      <point x="910.84" y="1141.72" type="curve" smooth="yes"/>
      <point x="952.8266666666667" y="1141.72"/>
      <point x="979.1733333333333" y="1174.5866666666666"/>
      <point x="979.1733333333333" y="1210.8133333333333" type="curve" smooth="yes"/>
      <point x="979.1733333333333" y="1285.5333333333333"/>
      <point x="869.8133333333333" y="1360.0"/>
      <point x="653.2133333333334" y="1360.0" type="curve" smooth="yes"/>
      <point x="326.64" y="1360.0"/>
      <point x="112.50666666666666" y="1087.9066666666668"/>
      <point x="112.50666666666666" y="636.04" type="curve" smooth="yes"/>
      <point x="112.50666666666666" y="211.78666666666666"/>
      <point x="326.72155642023347" y="-19.373333333333335"/>
      <point x="622.1066666666667" y="-19.373333333333335" type="curve" smooth="yes"/>
      <point x="731.568" y="-19.373333333333335"/>
      <point x="877.9200295756106" y="9.613110289968475"/>
      <point x="981.7333333333333" y="64.74666666666667" type="curve"/>
      <point x="981.7333333333333" y="67.88" type="line"/>
      <point x="941.56" y="109.42666666666666" type="line"/>
      <point x="941.56" y="537.1866666666667" type="line"/>
      <point x="1060.1733333333334" y="570.7733333333333" type="line"/>
      <point x="1060.1733333333334" y="599.0" type="line"/>
      <point x="686.1066666666667" y="599.0" type="line"/>
      <point x="686.1066666666667" y="570.7733333333333" type="line"/>
      <point x="838.44" y="537.1866666666667" type="line"/>
      <point x="838.44" y="36.733333333333334" type="line"/>
      <point x="862.6933333333334" y="95.6" type="line"/>
      <point x="776.12" y="47.06666666666666"/>
      <point x="715.0266666666666" y="35.68"/>
      <point x="622.96" y="35.68" type="curve" smooth="yes"/>
      <point x="407.18666666666667" y="35.68"/>
      <point x="219.38666666666666" y="256.58666666666664"/>
      <point x="219.38666666666666" y="672.2533333333333" type="curve" smooth="yes"/>
      <point x="219.38666666666666" y="1050.9066666666668"/>
      <point x="366.3066666666667" y="1304.8133333333333"/>
    </contour>
  </outline>
</glyph>
<glyph name="uni20BC.lf" format="2">
  <advance width="1030.1333333333334"/>
  <outline>
    <contour>
      <point x="515.0666666666667" y="1080.8133333333333" type="curve" smooth="yes"/>
      <point x="702.08" y="1080.8133333333333"/>
      <point x="796.796660236561" y="810.8973013773791"/>
      <point x="827.7466666666667" y="0.0" type="curve"/>
      <point x="938.6266666666667" y="0.0" type="line"/>
      <point x="866.6533333333333" y="886.3066666666666"/>
      <point x="733.3733333333333" y="1139.3733333333332"/>
      <point x="515.0666666666667" y="1139.3733333333332" type="curve" smooth="yes"/>
      <point x="297.38666666666666" y="1139.3733333333332"/>
      <point x="162.85333333333332" y="886.3066666666666"/>
      <point x="91.50666666666666" y="0.0" type="curve"/>
      <point x="201.76" y="0.0" type="line"/>
      <point x="232.7100064301056" y="810.8973013773791"/>
      <point x="328.68" y="1080.8133333333333"/>
    </contour>
    <contour>
      <point x="484.96" y="0.0" type="line"/>
      <point x="543.92" y="0.0" type="line"/>
      <point x="543.92" y="1340.0" type="line"/>
      <point x="484.96" y="1340.0" type="line"/>
    </contour>
  </outline>
</glyph>
